<svg xmlns:xlink="http://www.w3.org/1999/xlink" xmlns="http://www.w3.org/2000/svg" id="a" data-name="Lager 1" viewBox="0 0 347.15 788" width="386" height="788">
  <g id="b" data-name="Group 354">
    <g id="c" data-name="Group 529" style="opacity: .62;">
      <g id="d" data-name="sweden">
        <path id="e" data-name="SE-K" d="m93.17,736.15l2.18.61.47.31.69.66.74,1.06.7.86,3.68.35h1.33s1-.11,1-.11l.82-.78,1.38-1.71,1.99-.91,3.31-.1,2.11-.41.82-.29.45-.34.68-.79.21-.22,3.68-.2,1.21.05,3.72,3.84,1.87,2.57.58.87.67.53,1,.43,2.85.39,2.53-.33-.3,2.11-.93,2.42-.25.44-3.5,5.48-2.02-.93-.34-1.69-3.07-1.46-1.6-.75-5.85,2.66-.4.21-.29-.02-6.2-.83-.65-.4-.16-.15-.06-.25-9.55.33-.54.02-.16.16-.11.24-.18.96v.56s.06.24.06.24l.12.2.17.15.45.25.13.17.95,1.86.45,1.09-.03.29-.75.91-.48.5-2.22-.34-.39-1.03-.45-1.06-1.17-.25-.2.1-.26.19.55-.7.25-.67.03-.56.04-1.78-.2-1.67-.25-1.28-.15-.51-.54-.48-1.75-.02-.62.39-.44-.25-1.2-3.93.15-.64.04-.16.77-2.37.73-1.56,1.73-2.52Z" style="fill: #197969;"/>
        <path id="f" data-name="SE-I" d="m211.35,665.89l.78,3.55-2.74,4.29-2.12.91-1.04.86-.42,2.18-.89,7.39.22,1.75.04.25.5.92.54.45-.69,3.54-.92.77-.69.69-1,1.26-.31.41-.1.28-.08.33v.27l.04.26.37.33h.28l.51-.08.04.26.08,1.05-.07.26-1.41,1-2.78,1.84-.97.65-.43.2-1.12.41-.43.2-.59.42-.53.48-.15.2-.12.24-1.08,2.19-.11.28-.06.26-.1,2.18v.28s.21.15.21.15l.16,1.17-1.23,2.54-.2.13-2.09,1.04-.25.05-.97.09-.56-.09-.2-.15.06-.25.42-1.03,1.33-2.29,1.24-2.07-.06-2.27-2.13-3.03-.66-4.52.26-3.91-.41-4.56-.72-3.48-.13-.75v-.83s.03-.31.03-.31l.21-.56.51-.97,1.06-1.82.32-.38.54-.48.42-.27.38-.3.18-.16.71-.66.48-.56,1.17-1.76.45-.7.69-1.11.52-.99.48-1.06.97-2.09.13-.25.15-.21.37-.33,5.28-4.69.21-.12.69-.25.23-.08,4.13.15.54.07.31.04,2.38.44.04.25-.06.21h0Zm3.21,2.93l-.87-.61-.41-.32-.12-.21-.94-1.67-.08-.23v-.56l.04-.3,1.38-2.56.18-.17.23-.08,4.77-.07h.28l.29.11.66.46.08.23-.03.24-1.25.9-.24-.14-.08-.24-.17-.18-.3-.04-.48.12-1.77.87-.21.12-.32.41-.13.25-.11.29-.04.3-.36,3.08h0Zm2.91-24.69h-.29l-.21-.15-.82-2.06-.08-.24.07-.27,1,.08.97.28,1.17.45.5.28.17.18-.1.22-.32.42-.34.36-.21.13-.23.08-1.28.25h0Z" style="fill: #197969;"/>
        <path id="g" data-name="SE-X" d="m114.61,436.29l.37-.27,1.03-.86,1-.92.93-.99.89-.62,2.39-.39h.5l1.64.2,1.48.52,1.95.93,2.87,1.27,2.22.95,6.11,1.4,1.86.38,2.42.05.58-.1,1.27-.03,3.07.65,4.53.97,4.06,1.11.95.37,3.07.68,4.45.86,3.59.36,1.26.14,1.71.47.6.21-.52,6.66-.32.53-.18.24-.2.18-.26.1-.24-.17-.26-.1-.22.14-.18.25-1.03,1.93-.11.32-.12,1.05-.23,6.04,1.29,3.41,1.44,1.64.78-.3.37.08.29.16.14.23.62,1.23v.3l-.59,3.12-.06.22-.14.27-.17.25-.26.09-.85-.23-.33-.12-.28-.45-.06-.29-.15-.54-.64-1.83-.1-.26-.48-.47-.37-.35-.38-.33-.33-.11-2.45-.44-.35-.04-1.86.1-.26.09.05.29.2.2.23.18.68.15.28-.06.35.04.33.11,1.06.68.23.17.05.28-.08.37-.14.29-1.92,1.94-.24.15-.25.1-.35-.03-.32-.11-.48-.36-.05-.28-.24.02-.23.15-.2.19-.18,1.53.63,3.09,1.18,1.86.14.23,1.44,4.16-.08.69-.17.23-1.09.26-.46-.42-.09-.26-.29.07-.8,1.29-.14.27-.04.34.05.29,1.06,1.86,1.57,1.59.23.17.61.24.68.08.33.11-.03.27-.72,1.66-1.12,3.39-.54,4.81-.63,6.37-.23,3.77.1.24,1.24,1.27,1.03,1.14.09.25.83,2.6.2,3.84-.18,2.27-2.12,1.51.42.68,1.66.67,2.22,1.91.46,1.14-.42,1.19-.3,1.08-.15.96-1.03,4-.33,1.44-.15.6-.34.47-.66.3-.14.1-.54.42-.44.62-.42.48-.34.4-.15.56.54.88.15.75-.11.51-.12.79-.18.83-.06.67.11.19-3.29,2.51-1.14-.7-1.41-.47-1.4.04-.17.46-.02.69-.17.51-.65.96-.55.48-.14.12-2.64,1.62-.47.19-.69-.03-.13-.22-.27-.43-1.88-2.15-.41-.77-.34-.92-.47-1.24-.18-.52-.53-1.39-.86-.83-.56-.4-1.48-.62-.68-.35-.48-.37-.94-1.13-1.09-1.41-2.36-3.29-1.35-3.51-.31-.92-.05-1.18.72-.13,1-.41.93-.5,1-1.37,2.73-4.56-.14-2.38-.11-.75-.46-.72-1.17-1.57-1.4-2.01-.63-1.03-1.44-2.41-1.08-2.42-2.69-.59-2.36-.53-3.72-1.91-.58-.48-.61-.63-.31-.42-.31-.42-.47-.82-.63-1.35-.12-.5-.16-.62-.19-1.51-.03-.48-.16-1.11-.2-.85-.22-.58-.27-.5-2.51-2.87-4.47-5.21-.97-1.14-.67-.86-1.54-2.02-.8-1.05-.36-.55-.43-1.08-2.08-2.42-.45,1.45-.34.8-.66.58-.54.11-6.33.11h-1.28l-1.26-.31-.78-.28v-1.29s.07-.85.07-.85l-.27-1.28-.68-2.07-2.13-.04-2.71.06-.88.16,1.09-1.23.37-2.12.51-3.59.42-5.03,1.23-2.01.47-.71,1.22-1.8.48-.64.69.14.5.74.64,1.73.1.61.2.6.36.81.69.71.76.08,5.33-3.64.99-1.47.53-2.85.15-1.95-.14-1.54.13-.59,3.8-3.34.78-.59,1.48-.94,1.27-1.06.37-.55.38-.67.29-.83-.07-.58-.23-1.14-.33-.62-1.13-1.68-.56-1.21v-.55l.34-.58.2-.13Z" style="fill: #197969;"/>
        <path id="h" data-name="SE-N" d="m24.89,684.18l.72-.06.61.04,1.11.47.62.12.58.07.8-.24,1-.52,1.15-.62.83-.55.66-.55.65-.19.37.38,1,.96,2.09,7.1v.5s-.03.88-.03.88l-.4.64-.1.9-.05.65.08.55.19.56.78,2.1.53.07,1.49-.48.25-.52.18-.52,1.51-1.21,2.16-.34,1.17.35,5.95,5,2.66,2.24,1.3,1.35.11.27.36,2.42.6,2.33.27.77.43-.05,1.04-.64-.02-.58.1-.6.97-1.08,2.49-1,1.06-.33.58-.02,3.07.89,1.8,1.03.62.4-.05.55-.04,1,.09.88.42.45,2.47,1.06-.15.9-.34,1.42-.66,1.24-1.06.86-2.79.68-1.5.18h-.52s-2.42.33-2.42.33l-.31,2.35-.05.45.23,2.31.37,3.47,1.38,4.06.61,1.29.7.65.46.71.33,1.29.06.75.08,3.5-.08.54-.75.29-3.93,1.99-.66.61-2.69.77-3.83-.29-.68-.13-.62-.33-.07-.46-.02-1.35.02-1,.05-.42-.48-.27-1.24-.58-.89-.33.42-.07.2-.1.19-.14.47-.51.25-.46.19-.54.33-1.08.19-.94-.02-.55-.09-.52-.05-.24-.38-1.44-.78-2.86-.29-.38-.2-.12-1.24-.46-.22.09-.75.62-.71.17-.87.02-.18-.18-1.26-1.56-1.5-3.38-.36-1.47-.04-.27.02-.6.06-.32-.04-.27-.07-.26-.11-.2-.36-.61-.15-.18-2.35-2.29-.43-.3-1.32-.45-1.78-.83-.07-.23.06-2.45-1.67-3.02-4.23-8.99-.11-1.44.55-3.16-1.23-5.51-.97-1.35-.19-.15-.19-.1-.19.14-.67,1.1-.1.26-.05.33.07.53-.02.31-.48,2.8-.09.3-.18-.11-.97-1.57-.66-1.27-.36-.97-.07-.23.14-4.31.13-.56Z" style="fill: #197969;"/>
        <path id="i" data-name="SE-Z" d="m87.6,267.58l1.48,1.67,5.12,5.03,1.59,1.08,3.6,3.22,6.5,7.27.53.92.22,1.28.48,1.17.36.61.53.39,2.19,1,.56.47,3.67,3.53.48,1.39,2.24,3.69.66.48,1.36,1.33.95,1.48.42.81.35,1.32,1.11,2.85,5.68,4.22,2.3,1.57,2.29,1.54.39,1.14.27,2.68.08,1.03.64.12,1.14-.1.7-.27,1.78-.37.9.1,7.82,8.84,2.24,2.57,2.78,3.32.9,1.24-1.64,2.26-.78,1.29-.97,2.04-.19.52-.63,2.13-.4,1.85-.11.98.14.87.11.99.1,2.23-.58.58-2.65.64-4.4,2.16-1.92.31-2.08-.33-1.83.12-3.65.48-1.39.39-.62.23-1.37.65.3,1.28.65.69.83.76.52.59.83,1.21.51.8.25.86.48,2.73,4.08,8.55,1.08.97,2.51,2.12,1.11.92,1.28.93,4.41,3.53,1.75,1.8,1.24,1.4,3.12,3.64,6.82,8.14-1.53.65-1.53.29-.87.13-1.76.1-1.87.6-1.48,1.39-1.62,1.82-3.12,3.91-.31.53-.85,1.64-.56,1.62-.23.73-1.84.93-4.4.96-.65.09-.65-.08-.87-.3-.91-.69-.66-.25-.79-.05-4.92,2.27-1.8,1-1.46.48-7.14,1.93-.56.11-2.19.3-2.87,1.11-1.31,1-.6.21-1.18-.62-.58-.54-.48-.33-.73-.21-6.76.09.82,10.52,3.81,5.34,2.38,1.37,3.08,1.72.56-.44,1.28-1.09.56-.33,1.17-.03.75.44.48.48-.19.14-.34.58v.54l.56,1.21,1.13,1.68.33.62.23,1.14.07.58-.29.83-.38.67-.37.55-1.27,1.06-1.48.94-.78.59-3.8,3.34-.13.59.14,1.54-.15,1.95-.53,2.85-.99,1.47-5.33,3.64-.76-.08-.69-.71-.36-.81-.2-.6-.1-.61-.64-1.73-.5-.74-.69-.14-.48.64-1.22,1.8-.47.71-1.23,2.01-.42,5.05-.51,3.59-.37,2.12-1.09,1.22-1.78,1.11-.81-1.04-.55-.86-.62-.22-.62-.14-.86-.03-2.62-.18-4.06-.51-1.69-.45-5.21-.43-.96.03-4.52-.8-.53-.82-.55-1.22-.08-1.45.1-1.05-.31-.54-3.44-5.63-1.64-2.42-.91-.84-1.21-1.4.13-.94,1.19-.96,1.81-1.71.84-1.04-2.24-2.48-2.09.79-1.55.63-.63-.19-2.9-2.21-.42-.69-2.54-3.5-2.03-2.78-.66-.87-.69-.31-1.1-.13-2.86.13-1.3.2-2.39-.84-1.03-.5-2.19-1.31-.85-.71-.03-.07.03-.2-.11-.61-.53-2.01-.4-1.08-.29-.61-.93-2.95-.28-.84-.4-1.08-.32-.79-.61-1.28-1.71-3.92-.97-3.46-.02-4.3.69-2.9.44-1.92-.6-3.08-.44-2.06-.56-3.08.78-1.5,1.44-2.81,1-1.86.46-.96-.64-1.71-2.82-7.46-.25-.5-2.39-5.23,1.64-3.01,2.09-3.78,1.54-2.84,1.53-2.86-.43-1.58-1.03-4.24.38-.64,5.07-7.93,3.32-6.21,1.51-2.35,2.72-4.18,1.26-1.46,2.96-2.39,1.37-1.08,2.4-1.68,1.32-.67,1.15-.4,2.72-.76,1.53-.38.97-.19,1.62.39,18.15,4.41.17-.31,4.17-9.37.21-.72-.09-8.94-.04-.68-.88-7.64-2.21-1.06-3.47-1.18-2.12-1.33-3.63-2.55-.48-.38-.03-.34.07-.43.31-1.1.53-1.32.28-.64.48-.77,2.82-4.97,1.22-2.33,2.01-3.98,3.57-7.02,3.78-6.2,1.6-3.31Z" style="fill: #197969;"/>
        <path id="j" data-name="SE-F" d="m72.45,669.77l.1.08,1.17.58.83-.03.47-.55.48-.22,1.11-.4,1.17,1.08.79.95.59.23,3.54-4.86.55-1.04,1.4-2.78,2.33-5.23.77-1.75.11-.38.97.29,1.89.23,3.15.28,5.31.48.21.48.55.29,1.74-.14,1.41-.82.04-1.26.74-.38h.5l1.44,1.63.2.64.66,5.67-.42,1.13-.14.47-.07,1.67,1.58,5.82.51,1.45,1.03,2.21.53.53,1.06.03,1.12-.16,3.96.27,1.35.11.05.63.44.48,1.75.72,2.42,2.53.55,5.91-.35.94-.71,1.27-2,1.21-.56,5.03.54,4.99-.7-.2-1.89-.42-.48-.05h-1.05s-4.31-.04-4.31-.04l-1.35.09-1.29,1.24-2.9,2.34-.76.55-.9-.08-.47-.61-.13-.73-.34-1.27-.48-.46-1.35-1.03-.43-.22-.46-.05-.62.05-.63.19-2.78,1.44-4.51,1.58-.56.12-1.87.43-.29.48-.76,5.33.18.62.59.43.47.52.04,1.53-.47,1.42-.61,1.18-.34.54-.73.6-.53.12-.46.03-.48-.39-.39-.92-.43-1.36-.21-1.08-.08-.73-.51-1.03-.76-1.04-.81-.77-.8-.44-.54-.16-.97-.04-1.49.05h-.21s-6.09.81-6.09.81l-.77.58-.56,1.82-2.47-1.06-.42-.45-.09-.88.04-1,.05-.55-.62-.4-1.8-1.03-3.07-.89-.58.02-1.06.33-2.49,1-.97,1.08-.1.6.02.58-1.04.64-.43.05-.27-.77-.59-2.34-.36-2.42.8-.83,1.96-3.22.68-1.28,2.83-3.37,1.84-1.04,3.68-3.68,3.45-5.57.3-.79.24-.96.56-3.16,1-6.35.21-1.66.05-.56v-1.32Z" style="fill: #197969;"/>
        <path id="k" data-name="SE-H" d="m149.61,661.99l.51.81,1.78.55-.48,1.18.05.25.23.72.13.19.54.23.21.15.05.25v.29s-.17.17-.17.17l-.38.3-.21.12h-.24s-1.93-.53-1.93-.53l-.97-.34-.23-.1-.29-1.51.1-.12.31.03-.4-.77-2.21-2.81-.21.03-.21.12-.11.18-.08.24.37,4.8.05.14.08.12.21.21,1.1,1.17,2.96,4.43.43.58.26.41-.07.27-.22.06-.21-.17-1.72-1.44-.09-.23-.11-.51-.23-.41-.32-.4-.78-.92-.17-.18-1.94-1.51v.18l.03.14.21.56.17.23.18.23,2.38,2.73.31.31,1.45,1.26.84.95.26.4.22.42.06.26-2.18,3.65-1.63,1.85-.16,1.08,1.88.66,1.49,3.27.11.48v.3l-.58,2.85-.18.16-.23.12-.5.09-.13,1.04-.03.23-.18.12-.62-.15-.91-.29h-.3s-.23.08-.23.08l-.11.23-1.83,4.21-.13.66-.07.6-.24,2.87v.23s.06,1.08.06,1.08l.06.53.18.43,1.22,2,.25.03.18-.13.26-.05.16.18.46,1.11.55,2.15v.27s-2.17.35-2.17.35l-.23-.12-1,4.04-.37,2.96-.37,2.42-.5,2.31-.87,3.56-1.76,3.14-.2-.16-.26-.04-.48.12-.5.51-.99,1.85-2.42,6.93-.18.56-.35,1.14-.36,1.45-.95,3.85-2.53.33-2.85-.38-1-.44-.68-.53-.56-.87-1.88-2.57-3.72-3.84-1.22-.05-3.67.2-.22.22-.1-.58.07-2.87.93-7.95,2.22-4.08,1.27-2.86-.07-.64.04-.67.09-.83.44-.58,1.36.32.84.58.74.21h1.55s.56-.05.56-.05l1.82-.4.15-.54.16-.74.1-1.35-.07-.71-.58-1.71-.32-.51-1.05-1.55-.54-.65-2.9-2.62-1.85-1.37-1.08-2.36-.54-4.99.56-5.03,2.01-1.21.7-1.27.35-.94-.55-5.91-2.42-2.53-1.75-.71-.44-.48-.05-.63.27-1,3.58-5.7.62-.29,1.75-.59.56-.11.44.05.97.43.46.33.8.94.76.26,2.54.03,3.26-2.58.31-.54-.93-2.03-.14-.56-.53-4.77.07-1.35.07-.59,3.11-1.11,2.71-1.58.67-.43.46-.11,2.93.38.99.33,4.46,1.71.83,2.74.34.56.69.75.48.44Zm-5.93,85.45l-.23-.11-.13-.2-.14-.46-.2-2.32-.31-9.04.04-3.05.07-.32.65-2.41,3.21-9.07,1.82-4.41.13-.25.33-.27.42-.21,2.74-2.69,2.6-6,1.36-3.42,1.56-4.29.1-.28.07-.6-.14-.74-.03-.84.04-.3.15-.65.19-.56.25-.5.27-.45.45-.62.32-.37.35-.34.56-.35,1.1.42.18.11.48,1.33-1.94,6.51-1.09,2.65-1.26,2.74-.91,1.8-1.22,5.21-.84,4.12-.19.56-.12.25-.23.08-.29-.03-.23.08-.62.68-.15.2-.24.48-1.14,4.48-2.39,8.73-1.55,5.31-.16.6-.03.3.02.53.04.25.09.21v.28s-.09.3-.09.3l-.48,1.35-1.49,4.04-.26.45-.34.33-.96.62-.2.17h0Z" style="fill: #197969;"/>
        <path id="l" data-name="SE-W" d="m34.97,436.14l.03.07.85.71,2.19,1.31,1.03.5,2.4.85,1.3-.2,2.86-.13,1.1.13.69.31.66.87,2.03,2.78,2.54,3.5.42.69,2.9,2.21.63.19,1.55-.63,2.09-.79,2.24,2.47-.84,1.05-1.81,1.71-1.19.95-.13.95,1.21,1.39.91.84,1.64,2.42,3.44,5.63.31.54-.1,1.05.08,1.45.55,1.22.53.82,4.52.8.96-.03,5.21.43,1.69.45,4.06.51,2.62.18.86.03.62.14.62.22.55.86.81,1.04,1.78-1.11.88-.16,2.71-.06,2.13.04.68,2.07.27,1.28-.05.83v1.29s.77.28.77.28l1.26.31h1.28l6.33-.11.54-.11.66-.58.34-.8.45-1.45,2.08,2.42.43,1.08.36.55.8,1.05,1.54,2.02.67.86.97,1.14,4.47,5.21,2.51,2.87.27.5.22.58.2.85.16,1.11.03.48.19,1.51.16.62.12.5.63,1.35.47.82.31.42.31.42.61.63.58.48,3.72,1.91,2.36.53,2.69.59,1.08,2.42,1.44,2.41.63,1.03,1.4,2.01,1.17,1.57.46.72.11.75.14,2.38-2.73,4.56-1,1.37-.93.5-1,.41-.72.13.05,1.18.31.93,1.35,3.51,2.36,3.29,1.09,1.41.94,1.13.48.37.68.35,1.48.62.56.4.86.83.53,1.39.18.52.47,1.24.34.92.41.77,1.88,2.15-2.1,1.33-2.44,1.85-3.76,2.93-.61.48-.56.27-1.32.44-.67.08-2.29-.15-.54-.5-.24-.5-.07-.76.13-.5.23-1.08-.47-.44-3-2.49-1.88.28-4.25,1.05-.95.96-1.53,4.92-.2.74v.56s.45.41.45.41l.5.44-.14.56-.66,1.92-.39.97-.69.53-1.37-.13-.44-.59-.62-.13-.85.03-.48.19-.35.54-1.05,1.95-.66,1.32-.45,1.02-.99-.56-3.4-3.65-.46-.78-.71-1.39-.27-.84-.69-1.08-3.08-2.16-1.82-.6-.66.04-.45.68-1.11.19-.5-.09-.5-.56-.82-1.36-.48-.53-.63-.44-.59.31-.85.62-.31.48.53,2.51.16.59.15.56-.15,1.05-4.46-.72-.5-.15-1.17-.66-1.22-.14-.68.16-.11-.28-.29-.53-1.33-1.12-2.23-1.29-2.18-1.21-.63-.59-.29-.81-.1-.66-.08-1.42-.05-1.2-1.01-1.11-.74-.69-2.37-.51-.46.9.05,1.12-1.26.59-.61-.69-1.96-2.93-1.76-2.78-.77-1.26-.56-1.13-.85-1.87-.36-.55-1-.48-.92-.06-.95-.22-1.49-.73-.77-.8-.39-.71-2.5-4.95-3.26-6.8-2.98-4.78-3.16-3.42-6.45-6.88-1.76-1.73-.25-.61-1.29-4.36.86-1.64,2.68-6.15.65-2.41.91-3.67.66-2.74-2.17-2.87-6.42-8.31-.18-.06-1.09-.12-.35-.02-.62.06-.38-.04-.63-.22-.37-.4-6.53-7.57-.53-.61.93-6.44.28-1.9.31-1.89.48-2.84.39-2.39,1.14-7.65.95-6.51Z" style="fill: #197969;"/>
        <path id="m" data-name="SE-G" d="m71.08,711.04l.56-1.82.77-.58,6.09-.8h.21s1.49-.06,1.49-.06l.97.04.54.16.8.44.81.77.76,1.04.51,1.03.08.73.21,1.08.43,1.36.39.92.48.39.46-.03.53-.12.73-.6.34-.54.61-1.18.47-1.42-.04-1.53-.47-.52-.59-.43-.18-.62.76-5.33.29-.48,1.87-.43.56-.12,4.5-1.57,2.78-1.44.63-.19.62-.05.46.05.43.22,1.35,1.03.48.46.34,1.27.13.73.47.61.9.08.76-.55,2.9-2.34,1.29-1.24,1.35-.09,4.31.03h1.05s.48.06.48.06l1.89.42.7.2,1.09,2.36,1.85,1.37,2.9,2.62.55.64,1.04,1.55.32.52.58,1.71.07.71-.1,1.35-.16.73-.15.54-1.82.4-.56.04-1.55.02-.74-.22-.84-.56-1.36-.33-.44.58-.09.83-.04.67.07.65-1.27,2.85-2.22,4.08-.93,7.96-.07,2.87.11.58-.68.79-.45.34-.82.29-2.11.41-3.31.1-1.99.91-1.38,1.71-.82.78-1,.12h-1.33s-3.68-.36-3.68-.36l-.7-.86-.74-1.06-.69-.66-.47-.31-2.18-.61-.1-.05-2.97-1.02-2.86-.72-5.5-1.32-.43.1-.63.42-.19.55v.45s-.39.53-.39.53l-.94.58-.55.24-2.03.6-7.79,1.92-.43.09-.63.07-1.24-.19-1.1-.38.08-.54-.08-3.5-.06-.75-.33-1.29-.46-.71-.7-.65-.61-1.29-1.38-4.06-.37-3.47-.25-2.31.05-.45.31-2.35,2.42-.32h.52s1.5-.19,1.5-.19l2.8-.68,1.06-.86.66-1.24.34-1.42.16-.91Z" style="fill: #197969;"/>
        <path id="n" data-name="SE-BD" d="m252.81,0l.62.54,1.2.68,2.48.94,1.24.56,1.44.84.53.51.47.55.65.88.51.92.11.35.16.74v.4s-.2.47-.2.47l-.42.51-.7,1-.15.92v.41s.14.71.14.71l.18.33.23.26.3.25.78.38.38.1.83.05.9.14.9.3.6.48,3.32,3.41.23.27,5.36,6.67.74,2.39.11.33.34.62.58.48.35.22,1.3.48.92.22.42.19.58.48.52.5,1.55,1.56.22.26.11.35-.09.44v.42s.2.68.2.68l.45.55.58.48.42.18.95.28.41.02,1.04-.24.44.08.42.18.97,1.05.68.82,1,1.46.16.3.48.92.33.62.08.74.11.34.22.28.36.22,2.28.76.44.08,5.39.06,1.53.86,1.83.82,2.15.93,2.05.34.37.12,3.94,2.34.16.3.9,1.88.95,1.84.28.24.69.43.87.32,2.07,1.71.28.25.22.28,1.98,4,.19.69.12.69.18,2.62,3.05,2.06.46.16.34.21.43.55.15.32.35.97.12.69.1.65.07.75.37,1.32.25.65.46.92,3.61,3.51,2.81,2.41.27.24.22.27.24.64.03.38-.04.44-.16.45-.18.39-.22.35-.97,1.09-.3.15-1.35.37-.91.45-.48.55-.14.46-.1.43-.32,2.81-.03.41.56,7.24.44,3.25-.95,7.52-1.01,4.43-.09.42-.03.69.06.71.46.9.41.54.28.24.33.21.35.12.31-.15.41-.65.24-.27.33-.1.87.23,4.02,1.64.71.4.16.28.03.37.37,5.36-.03.4-.23.82-.62,1.71-.21.32-.27.21-.62.24-.66.18-1.24.45-.29.15-.28.21-.23.27-.29.89-.21.77-.43,4.95.03.36.24.62,2.65,6.76,1.32,2.63.35.56.35.54.79.71,2.09,3.37,1.81,3.15.14.28.23.62,1.35,4.04.18.65-.04.38-.18.24-.31.07-1.04.1-.29.13-1.14,2.51-.1.41.03.35.26,1.68.05,2.14-.28,6.54-.12.77-.09.41-.15.44-.17.37-.27.2-.92.31-.52.41-2.15,2.42-1.54,2.35-.2.31-.18.38-.14.43-.17.8-.03.37.56,7.42.03.33.12.66.48,2.54.91,3.8.08.31.15.29.2.26.51.45,1.41,1,.31.2.74.34.42.15.41.07.36.18.51.45.34.55.14.29.25.92.22,1.3.51,1.87,1.67,3.37,3.39,11.61.17.61.05.68-.05.38-.36.55-.23.25-.62.18-.39-.09-.67-.38-.76-.12-.31.09-2.22,1.44-.11.34-.09.4-.14.41-.16.36-.23.24-.31-.05-3.75-2.24-.03-.32-3.12-.56-3.57.36-2.19,2.58-1.06-.44-3.8-2.14-.2-.25-.86,1.9-1.8,3.86-.25.19-1.33.82-6.64-7.46-.07-.66-.09-.32-.86-1.66-1.76-1.91-1.26-1.03-.82-.22-.2.18.04.33.29.56.46.47.2.25.14.27.09.3.56,3.94-.52,2.8-.19.3-.22.27-.25.2-.3.09.07-.4.13-.43.02-.35-.17-.61-1.1-1.19-3.4-3.47-.74-.32-.86-.22-1.13-.09-.31.11-.16.22-.76,1.67-1.87,8.87-.23,3.73.62.31.22.1h.22s.3-.24.3-.24l.42.76.13-.43.02-.35-.15-.29-.19-.25-.3-.55-.29-.82-.09-.32.16-.21.37.16.51.43,1.64,1.93,1,4.45.07.65-.08.41-.18.3-.28.14-.31-.19-.39-.48-.35-.53-3.26-1.47-.94-.09-3.33-1.81-5.67-3.78-.26-.22-.2-.24-.15-.27-.36-1.22-.15-.27-1.44-1.35-.16.35.04.34.28.91,1.44,2.06.41.48.26.21,4.45,3.59.93.56,1.54.39.25.22,1.93,2.18-.13.29-.24.19-.55.3-2.91,1-1.41.24-.33-.11-2.06-.72-.26-.21-.2-.25-.12-.21-.19.03-.55.29-.18.14.15.26,1.12,1.85.35.51.31.2h.36s-.45-1.35-.45-1.35l.07-.25.31.18,1.11,1.15,1.35,1.74.03.32-.37,1.81-.18.3-2.14,1.63-6.67.44h-.36s-.39-.08-.39-.08l-.31-.2-.2-.23-.44-.83-.26-.21-.39-.05-1.1.53-1.86,1.35-.15.37.76,1.62.24.68.74,1.08.24.04.96.76.22-.27.06-.38-.09-.3.06-.16.61.37.26.21,1.98,1.99.2.25-.02.35-.09.73-.15.37-.82,1.06-.25.21-1.75.6-.6.19-.31-.19-.14-.27-.19-.59-.08-.67-1.17-1.74-.66-1.53-.12-.15-3.31-3.55-.36-.14-.27.14-1.26,1.8-.15.23.15.26,1.44.62.42.12,2.11.97,2.32,3.61,1.12,1.83.29.54,1.44,3.03.18.59.04.33-.02.35-.99,4.95-.17.32-.3.08-.85-.15-4.61-3.9-3.03-2.15-2.69-.4-2.74-.35-.99-.14-3.1-.65-1.56-.63-6.55-2.96-1.96-.94-2.68-1.44-5.54-2.9-4.86-2.31-1.3-.58-1.21-.16-.7.81-2.53,3.4-2.22,3.17-1.28,1.94-.63,1.12-.4.89-.52.79-.48.64-2.16,1.6-.64.33-1.72-.03-3.94-4.51-.14-.27-.1-.3-.05-.31v-.42l.11-.74-.09-.65-.29-.5-.24-.27-1.17-1.1-.46-.42-.83-.56-3.12-1.8-2.94-1.82-2.04-1.28-.31-.23-.71-.6-.42-.46-.21-.6-3.99-1.98-1.28-.32-.71-.25-.34-.18-6.17-4.16-.26-.19-.44-.46-.64-1.05-.33-.91-.95-1.17-.67-.14-.77-.07-.86.25-4.58-1.21-6.3-2.71-1.88-2.05-1.46-1.61-3.27-4.14-2.54-2.81-3.99-4.04-3.47-3.61-2.17-2.51-1.87-1.72-1.92-1.53-1.26-.83-2.49-.74-1.08-.26-4.65-.86-2.11-1.87-1.62-1.3-4.56-3.38-10.41-7.61-1.62-.82-4.41-1.89-1.98-.82-1.21-5.6-.77-3.59-.23-1.21,4.34-5.14,2.58-3.15,2.77-5.25,7.33-13.72,9.04-8.52,1.36-9.81-.18-.99-1-4.07-.63-1.56-1.98-3.04-1.09-1.66-.42-.51-1.12-1.26-.61-.8-.73-1.1-.18-.28-.38-.94-.08-.35-.03-.34,2.8-6.05.37-.12,4.64-.96.55-.99,2.77-5.45,1.62-3.29.18-.6.29-1.15.85-3.46,1.71-6.95,1.1-4.67,12.12-9.18,1.21-2.23.48-.88.56-1.12,8.38,4.27,1.48,1.09.83.69,1.66,1.38,1.54,1.44.47.51.3.23.71.36.69.21,1.46-3.65,5.14-10.73.52-1.12-1.35-8.12-.47-2.63-.44-2.6-.42-2.62-.2-1.3.32-2.18.63-3.64.24-1.21.23-.08,1.31-.46,5.48-1.71,6.68,4.58,8.94-.9,12.12,4.89,3.43,1.41,4.56,1.92,3.77,1.62,1,.61.67.34.37-.06.27-.24.23-.27.2-.36.33-.83.79-1.4.62-1,.47-.59.74-.82,2.4-2.08.23-.3.6-1.05,2.42-4.18.06-.46-2.71-1.45-3.74-2.09,1.33-1.57,2.07-3.48.66-1.1.95-2.11,1.99-4.58.96-2.32-.94-10.32-1.99-2.95-3.74-5.4,11.54-1.03,1.19-.29Z" style="fill: #197969;"/>
        <path id="o" data-name="SE-E" d="m100.45,627.83l.11-.23,2.04-1.37.51-.24.8-.21.48.18.48.39,1.26-.78.53-.71.59-1.78.18-.44.47-.81,1.17-1.14,3.08-2.66.97.08.47.35.93.77,1.47.79.58.07,2.53-2.51.89-.96.13-.94-.19-.81-.09-.58.53-.61,1.72-1.62.31-.06,4.74-1.35,1.17.17,1.11,1.19,1.71,1.63,4.65,3.68,2.76,1.87.69.59,2.62,3.99.21.86.46,1.12.54.23.87.2,1.86.27h.48l.83-.08.97.14,2.33.79.56.24.55.7.34,1.17-1.53-.4-5.69-.94-.66-.1-.62-.07-3-.21-1.47-.08-.23.08-1.05,1.8,2.62.7,2.03.42,1.08-.41.55-1.23.11-.18,5.59,1.05,2.35.76,1.08.89,3.9,4.81.26.42-2.74,1.96-.68.32-1.44.46-.44.04-3.61-.92-1.36-.56-.9-.59-1.03-.48-1.31.03-.32.22,4.2,1.95,2.91,1.26.27.06.43.31,1.58,1.82.05.27.5,2.87.9,5.23.03,1.13-1.99,8.14-.18.18-2.74,1.08-.69-.75-.34-.56-.83-2.74-4.46-1.71-.99-.33-2.93-.38-.46.11-.67.43-2.71,1.58-3.11,1.11-.07.59-.07,1.35.53,4.77.14.56.93,2.03-.31.54-3.26,2.58-2.54-.03-.76-.26-.8-.94-.46-.33-.98-.42-.44-.05-.56.11-1.75.59-.62.29-3.58,5.7-.27,1-1.35-.11-3.97-.27-1.12.16-1.05-.03-.54-.54-1.03-2.21-.51-1.45-1.58-5.82.07-1.67.15-.47.42-1.14-.66-5.67-.2-.64-1.44-1.63h-.51l-.74.37-.04,1.26-1.41.82-1.74.14-.55-.29-.2-.47-5.31-.48-3.15-.28-1.9-.24-.97-.29.34-.79,1.54-4.24.94-2.6.95-2.16,1.35-2.96.7-1.49,1.17-2.44,4.6-9.03.56-1.05.45-.79h0Z" style="fill: #197969;"/>
        <path id="p" data-name="SE-T" d="m91.08,559.07l.68-.16,1.22.14,1.17.66.5.15,4.46.72.15-1.05-.15-.56-.16-.59-.53-2.51.31-.48.85-.62.59-.31.63.44.48.53.82,1.36.5.56.5.09,1.11-.19.45-.68.66-.04,1.82.6,3.08,2.16.69,1.08.27.84.7,1.38.46.78,3.39,3.65.99.56.13.09,1.78,3.89.48,1.27.41,1.46.29,1.23,1.26,3.53.78,1.93,1.99,3.17.22.56.26,1.08.26,3.57-.03.52-.66.48-.74.4h-1.08l-.24.63-.32,5,2.42,1.48,2.8.96-.42,1.92.23,4.31-.75.56-1.2.26-.52.35-1.8,1.8-.37.48-.16,1.39.6,2.13-.31.05-1.71,1.65-.53.61.09.58.19.81-.13.94-.89.96-2.53,2.51-.58-.07-1.46-.79-.92-.77-.47-.35-.97-.09-3.08,2.66-1.16,1.13-.47.81-.17.44-.6,1.78-.53.7-1.26.78-.48-.39-.48-.19-.8.21-.5.24-2.04,1.37-.11.23-1.14-.58-1.81-1.36-1.46.29-.81.34-1.27.11-2.42-1.12-1.92-4.17-.67-1.95-2.27-6.7-.59-1.93,1.42-1.65.28-.48.27-.56-.1-.71-.21-.58-.51-1.02-.3-.78-.34-1.13-.24-1-.12-1.32v-.7l.87-6.02.35-.87,1.26-1.91.74-.67,1-1.4.55-1.06,1.09-4.61.08-.89-.1-.65-.31-1.27-.42-1.09-.48-1.91-.65-5.28.06-8.35,1.15-3.47-.13-1.66-.21-.65Z" style="fill: #197969;"/>
        <path id="q" data-name="SE-D" d="m166.22,597.42l-.13.14-.92,2.04-.13.67,1.66,8.45.5,1.33,1.38,1.63.84.2h.73l.51-.1,1.85-.23.61.09.76,1.56.34.35,1.03,1.45-.04.31-.08.35-1.12,2.66-.12.2-.26-.14-.43-.31-2.22,2.5-3.11,2.69-2.07.78-1.58.25-1.42-.04-1.66-1.5-.27-.06-1.33.66-.11.18.13.21,1.27,1,1.36,1.05-2.62,3.28-3.13,1.02-.26.04-.32-.03-2.73-.35-1.41-.27-.34-1.17-.55-.7-.56-.24-2.33-.79-.97-.14-.83.08h-.47l-1.86-.27-.87-.2-.54-.23-.46-1.12-.21-.86-2.58-3.99-.69-.59-2.76-1.87-4.65-3.68-1.71-1.63-1.11-1.19-1.17-.17-4.74,1.35-.6-2.12.15-1.4.37-.48,1.8-1.8.51-.36,1.21-.26.75-.56-.23-4.31,1.55-.22.55-.3.35-1.05.08-.63-.06-.56.08-.69,1.91-2.91,1.18-.99.59-.43.54-.23.88.3,1.77.17h.53l.59-.04,1.35-.27.64-.26.7-1.35.04-.48-.21-.58-.08-1.03v-1.27l.4-.08.75-.33.24-.09.56-.07,8.53-1.07.28.06.26.13.18.17.1.25.27.42,1.3,1.56,1.47,1.73.18.19.26.13,1.24.16h.29s.24-.1.24-.1l.08-.35.03-.32-.05-.27-.18-.19h-.62s-.3-.13-.3-.13l-.23-.16-.88-.62-.44-.32-1.72-1.29-.76-.71-.13-.22v-.25s3.57-.79,3.57-.79l.3.1.23.16,1.27.97.71.74.29.36.27.42.23.45.18.48,1.92,2,.93.27,1.08.11,1.65.07,2.78.85.56.24.22.16.13.22.05.26-.04.33-.11.3-.15.22-.21.13-.27.06-.63,1.48-.32,1.08.05.56h.9s0-.02,0-.02Zm-.81-5.88l-.67-.12-1.99-.42-.22-.16-2.02-3.47v-.29s.51-.03.51-.03l1.6.17,2.24.36.55.16.26.13.35.37.94,1.49.05.26-.02.26-.2.2-1.14,1.02-.25.08h0Z" style="fill: #197969;"/>
        <path id="r" data-name="SE-M" d="m93.18,736.15l-1.73,2.51-.73,1.56-.77,2.37-.04.16-.15.64,1.2,3.93.44.25.62-.39,1.75.02.54.48.15.51.25,1.28.2,1.67-.04,1.78-.03.56-.25.67-.55.7-.79.65-3.75,3.68-1.03,1.03-1.75,2.38-.5.9-.32.72-.41,1-.25.83-.13.6-.06.33-.1.61-.09.61-.07,1.17v.48s.04.26.04.26l.1.47.19.41.38.56,1.56,2.21,1.69,3.19.58,1.23.18.43.07.23-.1.28-.19.42-.66,1-.64.67-3.13,4.65-.8.27-1.06.04-1.67-.31-.56-.15-.86-.76-.94-.71-.88-.48-.64-.12-.54.02-4.23.37-.53.07-1.81.31-.25.07-3.53,1.55-.84.4-.96.79-.3.19-1.12.58-.81.04-1.15-.08-.29-.05-8.09-2.71-1.69-6.39-.04-.26-.05-.84v-.16s.05-.12.05-.12l.16-.3.23-.3.77-.47.56-.37,1.39-1.15.15-.17.12-.23.36-1.4.12-.91-.02-.13-.07-.38-3.46-6.06-.41-.71-6.08-10.48-.47-.79-.78-1.14-.27-.22-.23-.08-.14-.11-.76-1.41-.09-.19-2.69-6.57,1.36.09,2.68,1.14.43.26,1.93,1.44,1.8.03.19-.04.2-.12.3-.34.28-.43.16-.39.04-.11.08-.27v-.29s-.04-.24-.04-.24l-2.42-3.93-.27-.34-.18-.17-1.26-.8-.32-.03-.51-.21-.21-.14-.28-.36-.09-.22v-.56s.1-.61.1-.61l.06-.32.08-.27.1-.25.15-.18.83-.84.19-.13,1.1-.05h.28l.44.13.97.69.2.12.5.21.54.17h.53s.89.32.89.32l1.24.58.48.27-.05.42-.02,1,.02,1.35.07.46.62.33.68.13,3.83.29,2.69-.77.66-.61,3.93-1.99.75-.29,1.1.38,1.24.19.63-.07.43-.09,7.79-1.92,2.03-.6.55-.24.94-.58.4-.53v-.45s.18-.55.18-.55l.63-.42.43-.1,5.5,1.32,2.86.72,2.96,1.03.1.05Z" style="fill: #197969;"/>
        <path id="s" data-name="SE-AB" d="m198.82,599.26l-.32-.04-.3-.1-1.8-1.42-.18-.19-1.03-1.41.07-.29,1.96-.13.32.04.42.06.23.1,2.59,1.62.22.17-1,1.12-.22.13-.7.3-.25.05h0Zm-3.94,10.42l-.32-.04-.13-.21-.08-.24v-.3s1.03-2.34,1.03-2.34l.27-.51.16-.21.81-1.06.17-.11.24-.09.26-.04.25.03.33.88-.03.24-1.74,3.15-.48.64-.75.22Zm-17.64,5.85l-.28-.06-.51-.55-.13-.21-.18-.48-.62-1.82-.05-.27v-.28l.07-.64.48-2.58.19-.64.21-.13.17.18.37.58.56,1.11.1.53-.04.31-.11.31-.32.43-.21.6-.15,1.26-.07,1.21v.28s.1.23.1.23l.4.64h0Zm-3.07-37.75l4.01,2.54.4.35.27.74.51,1.75-.04.33-1.26,4.27-.16.22h-.29l-4.42-2.37-.21-.16-.48-.59-.13-.22-.03-.16-.02-.1.11-.3.62-.99.6.16.35-.42-.07-.55-.95-1.06.08-.02v-.29s-.44-1.14-.44-1.14l.23-.56.4-.58.93-.85h0Zm4.95,17.1l-.62-.04-.87-.34-.92-.62-.4-.34-.26-.43-1.17-2.82-.32-.97.13-.26.21-.14.24-.09h.29l.31.1,2.29,1.59.18.19.79.88.09.25.32,2.4v.29l-.06.27-.24.08h0Zm1.04,1.58l-1.56-.16-2-.46-.61-.21-.26-.13-.26-.14-.43-.32-.32-.4-2.38-4.84-.04-.26.04-.33.09-.23.21-.13.2-.07.83-.1,1.37,2.58.18.47.19,1.05v.3s-.03.32-.03.32v.59s.05.26.05.26l.26.14,2.29,1.11,2.18.95Zm18.14-45.53l.64-.02,2.49.38.35.09,1.89.85,1.72.91,1.04.76-.04.32v.6l.04.26.18.79,1.67,5.04.18.5.31.7.13.22.53.58.54.23h.36l1.14.4,1,.72.66.5v2.68s-.05.32-.05.32l-.07.28-.17.22h-.23s-.26-.12-.26-.12l-.39-.37-1.49-1.74-.88-.23-1.89,3.75,2.74.76,2.77.5.18.19.04.28v.29s-.19,1-.19,1l-.14.25-1,.83-1.08.17h-.3l-.7-.17-2.96.39-2.51,1.21-.75.93-.6,1.35.15.14.27-.04.48-.17h.3l.12.22-.28.52-1.78,2.13-.55.56-7.02,5.85-.26.06-1.35-.38-.99-.16-.24.09-.29,1.39v.17l.45,1.39.13.22.18.19.3.12.7.17.26.13.04.27-.16.22-.24.09h-.28l-3.58-.76-.26-.13-.13-.22.07-.27.38-.36h.29l.26.14.15-.31-.12-.77-.03-.16-.06-.5-.23-.09-1.64.12-.23.09-.68.82-1.13,2.29,1.11,1.31.07,1.69-3.95-.06-.32-.04-.3-.11-.52-.27-1.01-.63-.7-.46-.44-.32-.39-.35-.48-.59-.48-.59-.18-.48v-.59s.03-.32.03-.32l.56-2.99.19-.66.11-.3.28-.55.38-.36.67-.35.1-.25-.59-2.48-.18-.48-.18-.19-1.5-2.32-.31-1.31.39-.08,3.75-1.22,1.14-.52.54-.29,2.95-1.6.46-.48.7-1.91,1.01-.74,3.57-2.07,1.06-.58.66-.23.46-.75,1.96-6.68,1.57-7.66-.09-.81h0Zm-32.09,46.5l.13.09,1.93.44.28.06.32.03.27-.04-.05-.26-.26-.43-.18-.19-.4-.65-.14-.5-.1-.53-.15-1.08.04-.32h.29s1.35.64,1.35.64l.79.39.74.43,3.03.73,4.06.66,2.82.26,1.6-1.68.86-1,.18-.17.76-.59.21-.13.32.04.53.56.26.13.69.17h.59s1.55-.08,1.55-.08l1.93-.59.93-.91.23-.38.56-.52.21-.13.24-.09,1.55-.24,1.14.24.3.1.95.6.13.21-.09.31-.11.1-.13.08.08.25.52.27.32.04.2-.22.12-.3v-.29s-.27-1.02-.27-1.02l-.48-1.47-.5-1.39-.09-.25v-.29l.17-.12,1.12-.09.56.25.65.48.18.19,2.05,2.35.13.2.73,1.5.22.75.04.27-.09.34-.19.17-.24.09-.99.3-1.86.3-2.87-.26-.96-.09-.62-.16-.97,4.6,1.54,3.78-1.68.5-2.13.71-.23.08-2.13,1.33-3.12,2.5-3.3,6.73-.08.34-.04.33v1.14s.08.78.08.78l-2.77-4.28-.87-3.83.32-4v-.87s-.05-.27-.05-.27l-.05-.26-.15-.14-2.38-2.03-.13-.1-1.04,4.8-.33,1.73-.04.31.05.26.13.21.22.46.09.24-.4,1.88-.93,1.23-.76-1.56-.61-.09-1.85.23-.51.1h-.73l-.84-.2-1.38-1.63-.5-1.33-1.66-8.45.13-.67.92-2.04.12-.08h0Zm33.6-9.7l-.32-.04-.7-1.04-.13-.22-.04-.56v-.3l.07-.27.16-.22,1.08-1.42,1.06-1.04.6-.48.26-.04,2.51.43.21.17-.38.35-.21.13-.24.09-1.24.39-2.02,1.32-.07.29.04.26.44,1.2-.04.32-.56.53-.21.13-.27.03h0Z" style="fill: #197969;"/>
        <path id="t" data-name="SE-C" d="m168.58,526.15l.54-.55.23-.13,3-.61h.92s.61.17.61.17l.81.42.7.73.37.39.19.51-.14.27-.2.18-.92.51-.19.19v.3s.15,1,.15,1l.05.28.52,1.51.14.22.5.61.23.16.54.28.27.13,1,.24.25-.1v-.3s-.15-.52-.15-.52l-.19-.51-.04-.27v-.61s.08-.36.08-.36l.11-.33,1.05-1.26,1.82-1,1-.37.28-.04,1.21-.02.33.04.23.16.18.19.14.22.6,1.47,2.81,5.64,2.84,5.39,1.54.34.17-.22.25-.1.83-.13,3.1.53.22.16.18.5.48,1.69,2.85,2.62.71.47.18.21-.04.32-.2.18-.48.18h-.6l-.68-.13-1.58-.43-.58-.25-.22-.16-.4-.37-.97-.92-.36-.38-.54-.89-.76-1.05-.27-.13-.04.33v.31s2.17,4.94,2.17,4.94l.68,1.1,2.26,1.82.02.77-1.57,7.65-1.96,6.68-.46.75-.66.23-1.06.58-3.57,2.07-1.02.74-.7,1.91-.46.48-2.95,1.6-.54.29-1.14.52-3.75,1.22-.39.08-.31-1.51-.09-.25-.17-.07-.13.26-.22.61.1.54.05.15-1.3-.83-.2.16.02-1.87-.6-3.44-.09-.25-.9-.95-.17.12-2.41,3.89-1.27,2.17-.08.64,1.73,4.62.27.42.18.19.22.17.19-.04.95,1.06.07.55-.35.42-.6-.16-1.2-.14-.26-.14-1.14-.77-.22-.16-1.6-2.31-.13-.22-.05-.28v-.29s.4-1.63.4-1.63l-.07-.2-.21.15-.83,1.53.24.87.46,1.19.86,1.54.09.25.05.27.28,2.62v.29s-.03.32-.03.32l-.21.62h-.29l-1.93-.97-1.67-.86-.18-.19-1.84-1.58-1.8-.48-1.29.22-.16.22-.81.16-.32-.04-1.82-.33-.26-.13-1.97-2-.77-4.75-.28-.81-1.22-2.26-.71-.47-.78-.9v-.54s.34-.87.34-.87l1.37-2.6,1.53-.69,2.21-.51.47.07,1.41,1.44.52.16,1.03-1.03.63-1.04.41-1.11.03-2.87,2.32-3.1,2.05-1.41.46-.47.48-.81.51-2.8.12-.91.61-4.99-.63-.41-1.76-.81-.52-.59-1.23-1.88-.17-.32-.1-.19.06-.67.17-.83.13-.8.11-.5-.15-.75-.54-.88.15-.56.34-.4.41-.48.44-.62.54-.41.14-.11.66-.29.33-.48.15-.59.32-1.44,1.03-4,.15-.95.29-1.08.45-1.18h0Zm5.59,51.62l-.96.85-.4.58-.23.56-.21-.54-.16-1.4-.06-.86-.12-1.72v-.29s.03-.32.03-.32l.08-.36.65-1.35,1.35-.25h.29l.31.1.18.19.05.26-.11,1.6-.43,1.33-.28.56v1.04s.01,0,.01,0Zm25.55-34.92l-.33-.04-.74-.52-.22-.18-2.93-2.45-.18-.5-.04-.27-.28-1.95-.27-4.14.07-.3.17-.22.25-.09.5.31.36.7.89,3.15,1.35,4.22.79.3.94,1.54-.07.3-.24.13h0Z" style="fill: #197969;"/>
        <path id="u" data-name="SE-AC" d="m117.84,189.73l1.98.82,4.41,1.89,1.63.82,10.41,7.61,4.56,3.38,1.62,1.29,2.1,1.87,4.65.87,1.08.25,2.49.74,1.26.83,1.92,1.53,1.87,1.72,2.17,2.51,3.47,3.61,3.99,4.04,2.54,2.81,3.27,4.13,1.47,1.62,1.88,2.05,6.3,2.71,4.57,1.21.86-.25.78.07.67.13.94,1.17.32.9.64,1.05.44.46.26.19,6.18,4.15.34.19.71.25,1.28.32,3.99,1.97.21.61.43.46.71.6.31.23,2.04,1.28,2.95,1.83,3.13,1.8.83.56.46.41,1.15,1.11.24.27.29.5.09.65-.1.74v.42l.05.31.1.31.15.27,3.94,4.51,1.71.03.64-.33,2.16-1.59.48-.65.51-.79.4-.89.63-1.13,1.27-1.93,2.23-3.17,2.51-3.4.7-.81,1.21.16,1.3.58,4.84,2.31,5.55,2.9,2.68,1.44,1.96.95,6.55,2.96,1.55.63,3.11.65.97.14,2.74.35,2.69.4,3.03,2.15,4.61,3.9-1.03-.15-.29.09-.27.16-.12.42-.02.35.08.66.25.21-2.6,3.69-1.45.99-.65.09-1.2.31-.29.1-1.01,3.47.04.33.06,1.46-.68,2.01-1.35.69-.23.05-.36-.14-.31-.19-.15-.26-.18-.58.03-.71-.1-.29-.25-.21-.33.04-.41.5-.15.36-.07.38-.02.71.09.29.15.28.99,1.64.2.24.2.22.25.21.48.12.23.04.67-.02,1.46-.45.38.05.76.27.91.53.25.21.15.26.08.65-.15,5.46-.4-.12-.3-.17-.26-.21-.79-.94-2.02-2.31-.48-.1-.2-.06-.38.05-.44.11-.02.36.2,1.59.18.6.4.46,3.61,3.59,2.24,1.49.12-.39.15-.36.17-.14,2.42,1.82,2.34,2.64-.07.24-.23.19-.5.34-.29.09-2.57-.48-1.35-.48-.35-.14-.18.15.14.27.68.99.19.24.25.2,2.53,1.4,2.57.36.25.2.19.24.09.29.12.97-.05.46-3.92,4.95-1.77,1.56-1.8,1.53-.23.19-.72.52-.26.15-.23.05-.2-.22-.04-.32-.09-.29-.32-.1-.21.25-6.93,9.51-.37.55-.09.32-1.29,5.09-.25,2.82-2.68,6.95-.43,1.03-.2.25-1.09,1-1.54,1.05-1.47.83-2.08,1.03-.71-1.26-.22-.15-.15.22-1.22,3.61-.79,3.59-.11.4-.7,1-2.32,1.64-.92-1.15-4.31.6-2.32,1.18-2.96,1.56-.17.17-3.09,4.31-.69.99-.05.36.04.31.14.25.2.23.19.56.27,1.48-.17.29-1.78,1.5-.58.13-.4-.1-.71-.66-.14-.25.11-.74.08-.31v-.33s-.09-.28-.09-.28l-.62-1.17-3.02-3.22-.69-.61-.32-.08-.28.1-.66.59-.14.21.04.31,1.29,5.14-.7.75-2.14.31-.37-.02-.88-.82-.15-.25-.09-.61-.24-1.39-.29-.77-4.03-7.53-5.15-7.65-1.1-1.13-.93.38-.54-.02-.79-.23-7.01-2.8-.54-.23-.54-.33-.55-.48-.43-.7-.59-1.8-.16-.55-.15-1.22.09-.82.32-.6.43-1.06-.07-.65-.18-.65-.5-.38-.54-.27-.9.12-1.59.55-9.55,4.48-4.05,1.56-4.37-.25-4.15-.38-4.82-.73-1.5-.27-2.82-.62-4.04-.85-3.22-.45-.61-.4-2.39-2.46-.89-1.24-2.78-3.31-2.24-2.57-7.82-8.84-.9-.1-1.78.37-.7.27-1.14.1-.64-.12-.07-1.04-.27-2.66-.39-1.14-2.29-1.55-2.3-1.57-5.68-4.22-1.11-2.85-.34-1.33-.42-.82-.95-1.47-1.36-1.35-.66-.48-2.24-3.69-.48-1.39-3.67-3.53-.56-.46-2.19-1-.53-.39-.37-.6-.48-1.18-.22-1.28-.52-.9-6.5-7.28-3.61-3.22-1.59-1.06-5.12-5.03-1.48-1.67.33-.82.28-.93.26-1.23.71-3.68.34-2.39,3.26-4.2.04-2.85-.02-1.1.04-4.42.05-4.41.09-4.43.84-7.02.07-.43.12-.39.68-1.76.6-1.31.42-1.04.46-1.53.27-1.24.08-.66-.68-3.17-.76-3.52-.29-1.18-.76-3.74-.15-1.14-.41-3.47-.26-2.32-.11-1.15,5.59-.53,6.94-.56,1.15-.05,11.64-8.72-.64-2.42h0Z" style="fill: #197969;"/>
        <path id="v" data-name="SE-O" d="m16.57,664.23l-.25.08-.27-.04-1.22-.81-.15-.19-.12-1.42-.22-.45-.3-.86-.03-.29.02-.93.1-.26.48-.55.25-.07,5.41.37.14.56.03.28-.14,1.01-.07.29-.13.23-.17.18-1.66,1.62-.35.33-1.36.91h0Zm5.57-9.32l-.16.18-2.24.79-1,.11-1.36-.43-.03-.28-.45-.28h-.62s-.79.17-.79.17l-2.26.69-.04.28-.06,1.2.04.28-.27-.32-.11-.22-1.3-2.65.04-.33.21-.53,6.8-6.82.23-.11.83.04.34.06.4.15,1.31,1.8.62,1.05.07.26.03.28.06,2.07-.03,1.23-.1.68-.14.65h0Zm11.59-53.38l4.63,3.37.56.21,2.91.19.35-.56.02-1.12.2-.71.53-.23,1.17.16.79.47.56.63,2.82,7.24.25.8,1.26,4.59.1.58.21,1.49.44,1.65.61,1.14,2.1,1.17,2.35,1.28,4.02,2.04h.61s1.41-.43,1.41-.43l1.62-.71.81-.48-.38-.6-.79-1.02-.59-1.36v-.48s.13-.76.13-.76l.47-2.07.42-1.59.14-.51.66-2.34.21-.53.23-.44.86-.95.73-.74,2.37-2.17,1.56-.04,3.11.03,3.1.26,4.71.04.53-.1.65-.07.46.09,2.12.55.71.46.56.55.13.26.59,1.93,2.27,6.71.67,1.94,1.92,4.17,2.42,1.12,1.27-.11.81-.34,1.47-.28,1.8,1.36,1.15.58-.47.86-.56,1.05-4.6,9.03-1.18,2.43-.7,1.49-1.35,2.96-.95,2.16-.94,2.6-1.54,4.24-.34.79-.11.39-.77,1.75-2.32,5.23-1.4,2.78-.55,1.05-3.55,4.86-.59-.23-.79-.95-1.17-1.08-1.11.4-.48.22-.47.55-.83.03-1.17-.58-.1-.08v1.32s-.05.56-.05.56l-.21,1.67-1,6.34-.56,3.16-.24.96-.29.79-3.45,5.57-3.69,3.69-1.84,1.04-2.81,3.38-.68,1.28-1.96,3.23-.8.83-.11-.28-1.31-1.35-2.66-2.24-5.95-5-1.17-.35-2.16.34-1.51,1.21-.18.51-.25.53-1.49.48-.53-.07-.78-2.1-.19-.56-.08-.56.04-.65.1-.9.4-.64.04-.88v-.5s-2.1-7.11-2.1-7.11l-1-.96-.37-.38-.65.19-.65.55-.84.55-1.15.63-1,.53-.8.23-.59-.07-.62-.12-1.11-.46-.62-.04-.72.06.06-.1.07-.29.17-1.44-.23-2.44-.07-.25-.11-.23-.23-.05-.08.3-.02.34-.09.3-.17.16-.23.07-.27-.11-.91-2.87,1.01-.95.51-.66-3.61.25h-.24s-.97-.22-.97-.22l-.15-.19.02-.91.62-4.5-1.44-1.9.53-1.77.16-.18.21-.1.25-.1.79-.15.42-.25,1-5.39.15-1-.02-.58-.04-.29-.15-.21-.45-.25v-.31l.51-1.78,1.08-2.96.87-1.81.28-.44.1-.26.04-.33-2.15-4.52-.46-.79-1.36-.5-.31-.03-2.65,2.64-.4.67-.34.38-1.54,1.25h-.26s-.28-.08-.28-.08l-.54-.21-.12-.22v-.31s.53-2.34.53-2.34l.07-.31.12-.25,1.37-2.6,1.05-1.83-1.58-.22-.51,2.55-.26.88-.24.47-.54.91-.29.4-.26.32-.55.48-1.18.83-.18.1-2.3-4.5-1.91.11-.97-2.63.9-5.3.48-2.31.08-.29.24-1.13-.13-2.66-.04-.28-.19-.78-.12-.22-.99-1.12-.78-1.49-.07-.24-.03-.86.12-.86.51-1.12.45-.72.29-.41.12-.24.06-.34-.08-1.49-.04-.62-4.73-3.65-.73-.36-.92-.55-.23-.16-.19-.16-.23-.47.17-2.73.15-.63.22-.54,1.03-1.94.16-.21.37-.33.46-.23,1.62-.74,1.91.1.31.39.62,1.71.75,1.94.47,1.17.2.2.06-.09-.16,3.1v.33s.05.88.05.88l.03.3.04.21.11.23.19.17.31.07h.32s.89-.05.89-.05l6.1-.63.37-.13.56-.28.14-.23,3.27-9.22.05-.36-.03-.29-.15-.51-.11-.24-.07-.26v-.24l.3-2.42.1-.7.12-.66.15-.56.13-.3,1.55.55,4.64,1.44.65-.09v-.8s-.07-.77-.07-.77l-.05-.41.13-.7,3.99-.16.46.42.67,1.55.6.95v.02Z" style="fill: #197969;"/>
        <path id="w" data-name="SE-S" d="m44,502.53l1.29,4.36.25.61,1.76,1.73,6.45,6.88,3.16,3.42,2.99,4.79,3.26,6.8,2.5,4.95.39.71.77.8,1.49.73.95.22.92.06,1,.48.36.55.85,1.87.56,1.13.77,1.26,1.76,2.78,1.96,2.93.61.69,1.26-.59-.05-1.12.46-.9,2.37.51.74.69,1.01,1.11.05,1.2.08,1.42.1.66.29.81.63.59,2.18,1.21,2.23,1.29,1.33,1.12.29.53.11.28.21.65.13,1.66-1.15,3.47-.06,8.35.65,5.28.48,1.91.42,1.09.31,1.27.1.65-.08.89-1.09,4.61-.55,1.06-1,1.4-.74.67-1.26,1.91-.34.88-.87,6.02v.7l.12,1.32.24,1,.34,1.13.3.78.51,1.02.21.58.1.71-.27.56-.28.48-1.42,1.65-.14-.27-.55-.55-.72-.46-2.12-.55-.45-.09-.65.07-.52.1-4.71-.04-3.1-.26-3.11-.02-1.56.04-2.37,2.17-.73.74-.86.95-.23.44-.2.52-.66,2.35-.14.51-.42,1.59-.46,2.07-.12.77v.48s.58,1.36.58,1.36l.79,1,.38.6-.81.48-1.62.7-1.41.43h-.61s-4.02-2.04-4.02-2.04l-2.36-1.27-2.09-1.16-.61-1.14-.44-1.65-.21-1.49-.1-.58-1.26-4.59-.25-.8-2.82-7.25-.56-.63-.79-.47-1.17-.16-.53.23-.2.72-.02,1.11-.35.58-2.91-.19-.58-.22-4.62-3.36-.62-.94-.67-1.55-.45-.42-4,.16-.13.7.05.4.06.77.02.8-.65.09-4.63-1.44-1.55-.55.4-.66.2-.33.08-.13.08-.31v-.65s-.04-.9-.04-.9l-.16-1.44-.21-1.09-1.15-5.41-1.87-8.38-.04-.2,2.37-2.08.21-.14.46-.24.79-.21.23-.1.21-.16,1.8-2.24.12-.32.05-.35v-.65s0-.95,0-.95l-.12-1.78-.06-.64-.14-.52-.12-.24-.14-.24-.3-.4-1.42-1.8.97-.79.61-.45,2.13-1.41.29-.05.32.09.47.29.28.11.68.13h1.92s.59-.04.59-.04l.28-.08.6-.45.77-.7,3.1-3.07.36-.39,3.63-4.59.4-.67.32-1.15.13-.68.06-.37.05-.35.12-1.05.13-1.3v-.33s.02-.33.02-.33l-.02-.62-.09-.9.62-6.55.27-.52.9-1.81.47-1.12.19-1.36.14-.95.13-1.04v-.33s-.05-.61-.05-.61l-.3-1.97-.18-.52-2.15-5.52-2.12-4.3-1.03-2.18-.19-.51-.38-1.03-.29-1.09-.07-.27-.39-1.67-.73-2.78-.97-3.17-.7-1.46-.31-.42-.43-.67-.12-.24-.07-.27.14-.24.19-.21.66-.43,1.22-.59,2.47-1.14.52-.18.65-.03.68.03,1.1.17,1.76.15.93-.09.52-.18.43-.24Z" style="fill: #197969;"/>
        <path id="x" data-name="SE-Y" d="m150.4,549.06l.27.43.13.22.69.03.47-.19,2.64-1.62.14-.12.55-.48.65-.96.17-.51.02-.69.17-.46,1.4-.04,1.41.47,1.14.7,3.29-2.51.17.31,1.23,1.89.52.59,1.76.81.63.41-.61,4.99-.12.92-.5,2.78-.48.81-.45.47-2.05,1.41-2.32,3.1-.03,2.87-.41,1.12-.64,1.04-1.03,1.03-.52-.16-1.41-1.44-.47-.07-2.2.51-1.53.68-1.37,2.62-.35.87.02.54.77.9.71.46,1.22,2.26.28.81.77,4.75-1.02-.03-1.03,1.37-3.29.56-.1-.23-.92-1.51-.18-.19-1.35-1.23-.35-.07-.27.05-.21.13-.85.55-.16.24.05.26.64.79.54.55.14.22-.04.32-.07.36-.13.26-1.29,1.91-.44.23-3.65,1.77-4.09-.09-.25-.02-1.76-.3-.26-.11-.67-.48-.59-.52-.23-.16-.26-.11-.14.14.05.27.1.24.42.63.64.79.18.18.23.16.52.25.31.11,1.47.23.33.03,2.5-.24-.4.08v1.26l.08,1.03.21.58-.04.48-.7,1.35-.64.26-1.35.27-.59.04h-.53l-1.77-.17-.88-.3-.55.23-.58.43-1.18.99-1.9,2.91-.08.68.06.56-.08.63-.35,1.05-.55.3-1.55.23.42-1.92-2.8-.96-2.42-1.48.32-5,.24-.63h1.08l.74-.4.66-.48.03-.52-.26-3.57-.26-1.08-.22-.56-1.99-3.17-.78-1.93-1.26-3.53-.29-1.23-.41-1.46-.48-1.27-1.78-3.89-.13-.09.45-1.02.66-1.32,1.05-1.95.35-.54.48-.19.85-.03.62.13.44.59,1.37.13.69-.53.39-.97.66-1.92.14-.56-.5-.44-.46-.41v-.56s.21-.74.21-.74l1.53-4.92.93-.96,4.25-1.05,1.88-.28,3,2.49.47.44-.23,1.08-.13.5.07.76.24.5.54.5,2.29.15.67-.08,1.32-.44.56-.27.61-.48,3.76-2.93,2.44-1.85,2.1-1.35Z" style="fill: #197969;"/>
        <path id="y" data-name="SE-U" d="m171.41,430.22l-.74-.13-.33-.13-.58-.29-.15-.24-.1-.27-.21-1.17.04-.36.09-.38v-.32s-.17-.89-.17-.89l-.2-.52-.59-.95-.1-.27-.05-.29.16-.16.87.43,1.49.3.24.19.23.78.15.24.1.25.1.59.15.24.24.17.15.24.11.59-.07.32.06.29.1.27.02.65.39.41.15.24-.88.16h-.68s0,0,0,0Zm14.85-17.46l-.21-.13-.15-.24-.25-.51-.1-.27-.1-.59.09-.7.44-1.32.18-.24.38-.24.27-.1,1.55.29.31.08.15.24.16.35.1.61-.05.35-1.08,1.44-.18.24-.21.19-1.01.5-.29.05h0Zm33.11-46h-.33l-.19.25-.16.3-.13.34-.1.39.04,1.3.04.64-1.23,4.77-2.82,3.85-1.49,4.84-.22.19-.3.05-.26-.11-1.69-1.96-.15-.25-.1-.26.04-.37v-.33s-.23-.85-.23-.85l-1.38-1.6-.37-.05-2.05,1.27-.15.09-.08.13-.05.19.06.17.18.1.97.37.97.41.64.99.19.21-.47.88-2.96,1.73-.23-.05-.39-.44-.58.15-2.42,1.58-2.11,1.35-.21.19-.15.29-1.69,4.28.95,2.86.39.08.34.13.25.19.15.24.24.52.1.6-.1.26-2.69,5.1-.18.24-6.8,4.58-.24.14-1.93.59-1.13-.88.56-1.32.65-.02.24-.14.18-.24v-.32s-.2-.22-.2-.22l-1.69-.92-.95-.14-1.37.98-.27.63.53,4.64.26,1.48v.66s-1.25,1.36-1.25,1.36l-.28-.03-1.9.32.1.27.2.21,2.13,1.23,1.8.46.29.16.45,1.68-.18.24-5.58,5.85-.21.19-.27.1-.35-.03-.59-.95-.24-.17-.35-.05-1.14.25-.8.3-.21.19-.71.97-.12.35.2.52.39.41.24.17-.37.56-1.37.21-.35-.05-1.09-.3-.48-.35-.2-.21-.25-.51-.4-1.04-.25-.51-.79-1.15-.97-1.35-.4-.41-.35-.05-.21.21-1.76,2.42-.15.29-.09.38.9,6.81.32,1.76.1.27,2.35,3.32.97.4,1.3.47.66.17,1.23.44.56.3.24.17-.13.21-1.3,1.02-1.14.79-.3-.08-.2-.21-.05-.28h-.52s-.16.06-.16.06l-.05.23-.65,4.24-.59-.21-1.71-.47-1.26-.14-3.59-.36-4.45-.86-3.07-.68-.95-.38-4.07-1.11-4.52-.97-3.07-.64-1.27.03-.58.09-2.42-.05-1.85-.38-6.11-1.41-2.22-.95-2.87-1.27-1.95-.93-1.48-.52-1.63-.21h-.51l-2.38.39-.89.62-.94.99-1,.91-1.03.87-.37.27-.48-.48-.75-.44-1.23.04-.56.33-1.28,1.09-.56.44-3.08-1.72-2.38-1.38-3.8-5.36-.82-10.5,6.76-.09.73.21.48.33.58.54,1.18.62.59-.21,1.31-1.02,2.87-1.1,2.19-.3.56-.11,7.15-1.93,1.46-.48,1.8-1,4.93-2.27.79.05.67.26.91.69.87.3.65.08.65-.1,4.4-.96,1.84-.93.23-.74.56-1.62.85-1.64.32-.53,3.11-3.91,1.62-1.82,1.48-1.39,1.87-.6,1.76-.1.87-.13,1.53-.29,1.53-.66-6.81-8.13-3.12-3.64-1.23-1.4-1.76-1.8-4.41-3.53-1.28-.93-1.11-.93-2.51-2.13-1.08-.97-4.07-8.53-.48-2.73-.26-.86-.51-.81-.83-1.21-.52-.59-.83-.76-.65-.69-.3-1.28,1.38-.64.62-.23,1.39-.4,3.65-.48,1.83-.12,2.08.33,1.92-.31,4.39-2.16,2.65-.65.58-.58-.1-2.23-.1-1-.14-.86.11-.97.4-1.85.63-2.14.18-.52.97-2.04.79-1.29,1.63-2.26,2.39,2.46.61.4,3.22.45,4.04.85,2.82.62,1.5.27,4.82.73,4.15.38,4.37.25,4.05-1.56,9.55-4.48,1.59-.55.9-.12.54.27.5.38.18.65.07.65-.43,1.07-.32.6-.09.82.15,1.22.16.55.59,1.8.43.7.55.48.54.33.54.23,7.02,2.8.79.23.54.02.93-.38,1.1,1.13,5.15,7.65,4.04,7.53.29.77.25,1.42h-.01Z" style="fill: #197969;"/>
      </g>
    </g>
    <g id="z" data-name="Group 353">
      <g id="aa" data-name="Ellipse 100" style="opacity: .53;">
        <circle cx="191.05" cy="584.53" r="22.19" style="fill: #ebf2fb;"/>
        <circle cx="191.05" cy="584.53" r="21.75" style="fill: none; stroke: #ebf2fb; stroke-miterlimit: 3.59; stroke-width: .9px;"/>
      </g>
      <g id="ab" data-name="Ellipse 101" style="opacity: .53;">
        <circle cx="36.92" cy="676.15" r="10.49" style="fill: #ebf2fb;"/>
        <circle cx="36.92" cy="676.15" r="10.04" style="fill: none; stroke: #ebf2fb; stroke-miterlimit: 3.59; stroke-width: .9px;"/>
      </g>
      <g id="ac" data-name="Ellipse 102" style="opacity: .53;">
        <circle cx="66.36" cy="762.48" r="10.49" style="fill: #ebf2fb;"/>
        <circle cx="66.36" cy="762.48" r="10.04" style="fill: none; stroke: #ebf2fb; stroke-miterlimit: 3.59; stroke-width: .9px;"/>
      </g>
      <g id="ad" data-name="Ellipse 103" style="opacity: .53;">
        <circle cx="45.78" cy="716.88" r="5.25" style="fill: #ebf2fb;"/>
        <circle cx="45.78" cy="716.88" r="4.8" style="fill: none; stroke: #ebf2fb; stroke-miterlimit: 3.59; stroke-width: .9px;"/>
      </g>
      <g id="ae" data-name="Ellipse 104" style="opacity: .53;">
        <circle cx="107.12" cy="743.51" r="5.25" style="fill: #ebf2fb;"/>
        <circle cx="107.12" cy="743.51" r="4.8" style="fill: none; stroke: #ebf2fb; stroke-miterlimit: 3.59; stroke-width: .9px;"/>
      </g>
      <g id="af" data-name="Ellipse 105" style="opacity: .53;">
        <circle cx="92.59" cy="727.37" r="5.25" style="fill: #ebf2fb;"/>
        <circle cx="92.59" cy="727.37" r="4.8" style="fill: none; stroke: #ebf2fb; stroke-miterlimit: 3.59; stroke-width: .9px;"/>
      </g>
      <g id="ag" data-name="Ellipse 107" style="opacity: .53;">
        <circle cx="137.78" cy="689.44" r="5.25" style="fill: #ebf2fb;"/>
        <circle cx="137.78" cy="689.44" r="4.8" style="fill: none; stroke: #ebf2fb; stroke-miterlimit: 3.59; stroke-width: .9px;"/>
      </g>
      <g id="ah" data-name="Ellipse 108" style="opacity: .53;">
        <circle cx="196.7" cy="686.21" r="5.25" style="fill: #ebf2fb;"/>
        <circle cx="196.7" cy="686.21" r="4.8" style="fill: none; stroke: #ebf2fb; stroke-miterlimit: 3.59; stroke-width: .9px;"/>
      </g>
      <g id="ai" data-name="Ellipse 109" style="opacity: .53;">
        <circle cx="82.5" cy="654.9" r="5.25" style="fill: #ebf2fb;"/>
        <circle cx="82.5" cy="654.9" r="4.8" style="fill: none; stroke: #ebf2fb; stroke-miterlimit: 3.59; stroke-width: .9px;"/>
      </g>
      <g id="aj" data-name="Ellipse 110" style="opacity: .53;">
        <circle cx="152.31" cy="607.12" r="5.25" style="fill: #ebf2fb;"/>
        <circle cx="152.31" cy="607.12" r="4.8" style="fill: none; stroke: #ebf2fb; stroke-miterlimit: 3.59; stroke-width: .9px;"/>
      </g>
      <g id="ak" data-name="Ellipse 111" style="opacity: .53;">
        <circle cx="61.11" cy="577.26" r="5.25" style="fill: #ebf2fb;"/>
        <circle cx="61.11" cy="577.26" r="4.8" style="fill: none; stroke: #ebf2fb; stroke-miterlimit: 3.59; stroke-width: .9px;"/>
      </g>
      <g id="al" data-name="Ellipse 112" style="opacity: .53;">
        <circle cx="98.24" cy="588.56" r="5.25" style="fill: #ebf2fb;"/>
        <circle cx="98.24" cy="588.56" r="4.8" style="fill: none; stroke: #ebf2fb; stroke-miterlimit: 3.59; stroke-width: .9px;"/>
      </g>
      <g id="am" data-name="Ellipse 113" style="opacity: .53;">
        <circle cx="137.78" cy="572.42" r="5.25" style="fill: #ebf2fb;"/>
        <circle cx="137.78" cy="572.42" r="4.8" style="fill: none; stroke: #ebf2fb; stroke-miterlimit: 3.59; stroke-width: .9px;"/>
      </g>
      <g id="an" data-name="Ellipse 114" style="opacity: .53;">
        <circle cx="174.1" cy="560.31" r="5.25" style="fill: #ebf2fb;"/>
        <circle cx="174.1" cy="560.31" r="4.8" style="fill: none; stroke: #ebf2fb; stroke-miterlimit: 3.59; stroke-width: .9px;"/>
      </g>
      <g id="ao" data-name="Ellipse 115" style="opacity: .53;">
        <circle cx="102.27" cy="509.47" r="5.25" style="fill: #ebf2fb;"/>
        <circle cx="102.27" cy="509.47" r="4.8" style="fill: none; stroke: #ebf2fb; stroke-miterlimit: 3.59; stroke-width: .9px;"/>
      </g>
      <g id="ap" data-name="Ellipse 116" style="opacity: .53;">
        <circle cx="115.19" cy="490.91" r="5.25" style="fill: #ebf2fb;"/>
        <circle cx="115.19" cy="490.91" r="4.8" style="fill: none; stroke: #ebf2fb; stroke-miterlimit: 3.59; stroke-width: .9px;"/>
      </g>
      <g id="aq" data-name="Ellipse 117" style="opacity: .53;">
        <circle cx="99.85" cy="403.75" r="5.25" style="fill: #ebf2fb;"/>
        <circle cx="99.85" cy="403.75" r="4.8" style="fill: none; stroke: #ebf2fb; stroke-miterlimit: 3.59; stroke-width: .9px;"/>
      </g>
      <g id="ar" data-name="Ellipse 118" style="opacity: .53;">
        <circle cx="147.47" cy="387.61" r="5.25" style="fill: #ebf2fb;"/>
        <circle cx="147.47" cy="387.61" r="4.8" style="fill: none; stroke: #ebf2fb; stroke-miterlimit: 3.59; stroke-width: .9px;"/>
      </g>
      <g id="as" data-name="Ellipse 119" style="opacity: .53;">
        <circle cx="153.12" cy="253.64" r="5.25" style="fill: #ebf2fb;"/>
        <circle cx="153.12" cy="253.64" r="4.8" style="fill: none; stroke: #ebf2fb; stroke-miterlimit: 3.59; stroke-width: .9px;"/>
      </g>
      <g id="at" data-name="Ellipse 120" style="opacity: .53;">
        <circle cx="249.96" cy="168.9" r="5.25" style="fill: #ebf2fb;"/>
        <circle cx="249.96" cy="168.9" r="4.8" style="fill: none; stroke: #ebf2fb; stroke-miterlimit: 3.59; stroke-width: .9px;"/>
      </g>
      <g id="au" data-name="Ellipse 112" style="opacity: .53;">
        <circle cx="121.43" cy="640.9" r="5.25" style="fill: #ebf2fb;"/>
        <circle cx="121.43" cy="640.9" r="4.8" style="fill: none; stroke: #ebf2fb; stroke-miterlimit: 3.59; stroke-width: .9px;"/>
      </g>
    </g>
  </g>
</svg>