<?xml version="1.0" encoding="UTF-8" standalone="no"?>
<!-- Created with Inkscape (http://www.inkscape.org/) -->

<svg
   version="1.1"
   id="svg1"
   width="2379"
   height="240"
   viewBox="0 0 2379 240"
   sodipodi:docname="logo[1] (4).svg"
   inkscape:export-filename="bygglovsexperten_logo.svg"
   inkscape:export-xdpi="96"
   inkscape:export-ydpi="96"
   inkscape:version="1.4 (e7c3feb1, 2024-10-09)"
   xmlns:inkscape="http://www.inkscape.org/namespaces/inkscape"
   xmlns:sodipodi="http://sodipodi.sourceforge.net/DTD/sodipodi-0.dtd"
   xmlns="http://www.w3.org/2000/svg"
   xmlns:svg="http://www.w3.org/2000/svg">
  <defs
     id="defs1" />
  <sodipodi:namedview
     id="namedview1"
     pagecolor="#505050"
     bordercolor="#ffffff"
     borderopacity="1"
     inkscape:showpageshadow="0"
     inkscape:pageopacity="0"
     inkscape:pagecheckerboard="1"
     inkscape:deskcolor="#505050"
     inkscape:zoom="0.44388398"
     inkscape:cx="1188.3736"
     inkscape:cy="119.40057"
     inkscape:window-width="1920"
     inkscape:window-height="1147"
     inkscape:window-x="0"
     inkscape:window-y="25"
     inkscape:window-maximized="0"
     inkscape:current-layer="g1">
    <inkscape:page
       x="0"
       y="0"
       inkscape:label="1"
       id="page1"
       width="2379"
       height="240"
       margin="0"
       bleed="0" />
  </sodipodi:namedview>
  <g
     id="g1"
     inkscape:groupmode="layer"
     inkscape:label="1">
    <g
       id="group-R5">
      <path
         id="path2"
         d="m 6483.45,685 c -140.46,86.539 -281.86,171.492 -424.5,254.574 -1.88,42.953 -4.07,85.896 -9.09,128.846 -7.52,65.84 -18.49,131.68 -41.07,197.52 -6.58,19.12 -21.63,35.42 -42.33,42.32 -35.42,12.22 -73.98,-6.9 -85.9,-42.32 -22.26,-65.84 -33.55,-131.68 -41.06,-197.52 0,-0.93 -0.32,-2.19 -0.32,-3.13 -152.99,86.53 -306.92,170.86 -462.1,253.32 -94.38,49.53 -188.74,98.44 -283.41,147.03 -95.31,47.97 -190.93,95 -287.81,140.77 -47.96,23.2 -96.56,45.77 -145.47,68.02 -48.9,23.21 -105.34,45.15 -159.88,62.39 -55.49,17.56 -113.18,31.04 -170.24,40.45 -55.49,9.09 -110.98,15.68 -168.36,19.75 -28.21,2.19 -59.25,3.44 -89.34,2.82 -29.78,-0.63 -58.32,-2.19 -86.53,-4.39 -57.06,-4.38 -110.98,-10.97 -169.61,-21.64 -57.68,-10.65 -114.74,-25.7 -169.92,-44.51 -27.59,-9.4 -54.87,-19.75 -81.82,-31.04 l -74.94,-32.29 C 3291.93,1581.01 3100.7,1486.02 2910.08,1390.09 2529.17,1198.85 2157.04,992.871 1787.72,785.961 l -0.3,-0.32 c -50.8,-28.84 -70.55,-92.801 -43.9,-145.461 27.28,-53.93 93.42,-75.559 147.66,-47.969 80.57,41.07 160.83,82.141 241.09,123.508 0.02,0.011 0.03,0.019 0.05,0.031 -0.06,-2.75 -0.2,-5.52 -0.25,-8.281 l -0.12,-98.75 2.26,-98.758 c 3.46,-65.852 4.26,-131.691 12.08,-197.531 3.28,-28.551 7.47,-57.121 12.71,-85.668 l -25.53,-0.18 -421.13,-5.844 C 1150.81,210.039 589.297,202.551 27.7773,145.641 13.4688,144.199 1.66016,132.879 0.160156,118.031 -1.5625,101.039 10.8008,85.8984 27.7773,84.1797 589.297,27.2813 1150.81,19.7813 1712.34,9.08203 L 2133.47,3.23828 2554.61,0.25 c 280.76,-0.859375 561.52,0.371094 842.29,4.94141 58.88,1.01953 106.98,48.59769 107.94,107.92959 0.99,60.609 -47.35,110.539 -107.94,111.52 -280.77,4.55 -561.53,5.789 -842.29,4.918 l -210.37,-1.481 c 5.11,28.113 9.25,56.231 12.47,84.352 7.83,65.84 8.63,131.679 12.09,197.531 l 2.25,98.758 -0.12,98.75 c -0.77,43.152 -2.48,86.312 -5,129.472 0.06,0.039 0.14,0.079 0.22,0.122 217.89,113.175 434.83,226.347 653.04,336.387 188.41,94.68 378.08,185.59 568.07,272.13 l 70.85,31.35 c 21.95,9.71 44.2,18.5 66.47,26.33 44.83,15.68 90.6,28.54 136.68,37.94 45.46,8.78 97.2,15.67 145.48,21 24.44,2.51 48.9,4.39 72.41,5.34 22.57,0.93 44.83,0.62 69.29,-0.32 48.59,-2.2 98.44,-7.21 147.66,-14.11 47.96,-6.59 93.73,-15.98 139.83,-29.47 46.71,-13.48 89.65,-29.16 137.31,-49.53 48.28,-20.38 96.88,-40.45 144.84,-61.45 96.56,-41.39 192.81,-84.64 289.06,-127.91 96.25,-42.95 192.49,-86.84 288.42,-131.05 177.76,-81.51 355.21,-163.657 533.28,-245.79 78.06,-36.047 156.44,-72.109 234.82,-108.148 128.84,-59.262 257.7,-118.203 386.86,-176.512 16,-7.211 35.11,-1.879 44.52,13.48 10.04,16.622 5.02,37.93 -11.59,48.27"
         style="fill:#5ec9f4;fill-opacity:1;fill-rule:nonzero;stroke:none"
         transform="matrix(0.13333333,0,0,-0.13333333,0,240)" />
      <path
         id="path3"
         d="m 6955.89,0 h 78.94 v 1800 h -78.94 V 0"
         style="fill:#ffffff;fill-opacity:1;fill-rule:nonzero;stroke:none"
         transform="matrix(0.13333333,0,0,-0.13333333,0,240)" />
      <path
         id="path4"
         d="m 7986.56,708.301 c -31.28,-25.02 -71.52,-37.531 -120.72,-37.531 h -267.72 v 306.496 h 263.96 c 28.35,0 55.67,-4.176 81.95,-12.508 26.27,-8.34 47.73,-23.57 64.42,-45.66 16.68,-22.106 25.02,-53.602 25.02,-94.457 0,-52.539 -15.63,-91.321 -46.91,-116.34 z m -34.41,607.369 c 24.19,-22.95 36.29,-55.26 36.29,-96.96 0,-46.71 -13.14,-81.94 -39.41,-105.71 -26.27,-23.76 -57.76,-35.66 -94.45,-35.66 h -256.46 v 272.73 h 253.96 c 42.53,0 75.88,-11.47 100.07,-34.4 z m 100.71,-307.13 c -23.59,16.47 -49.15,28.69 -76.44,37.1 7.43,3.14 14.61,6.56 21.4,10.44 32.1,18.34 56.48,42.95 73.18,73.82 16.67,30.83 25.02,64.62 25.02,101.33 0,69.21 -19.82,122.79 -59.42,160.74 -39.62,37.95 -96.14,56.92 -169.51,56.92 h -326.52 c -14.19,0 -26.07,-4.79 -35.65,-14.37 -9.6,-9.61 -14.39,-21.49 -14.39,-35.66 V 624.488 c 0,-14.199 4.79,-26.277 14.39,-36.289 9.58,-10.008 21.46,-15.008 35.65,-15.008 h 329.02 c 32.52,0 64.84,4.161 96.95,12.508 32.1,8.321 61.3,22.301 87.57,41.922 26.27,19.578 47.32,45.438 63.18,77.559 15.83,32.09 23.77,71.929 23.77,119.461 0,44.207 -8.14,81.316 -24.4,111.351 -16.26,30.02 -37.53,54.199 -63.8,72.548"
         style="fill:#ffffff;fill-opacity:1;fill-rule:nonzero;stroke:none"
         transform="matrix(0.13333333,0,0,-0.13333333,0,240)" />
      <path
         id="path5"
         d="m 8749.05,1229.97 c -15.01,0 -27.11,-4.8 -36.28,-14.38 -9.19,-9.59 -13.76,-21.49 -13.76,-35.66 V 824.641 c 0,-31.7 -8.13,-60.672 -24.39,-86.942 -16.27,-26.258 -37.97,-46.918 -65.06,-61.929 -27.11,-15.008 -57.35,-22.52 -90.69,-22.52 -52.55,0 -91.33,14.398 -116.35,43.172 -25.02,28.769 -37.53,71.5 -37.53,128.219 v 355.289 c 0,14.17 -4.6,26.07 -13.76,35.66 -9.19,9.58 -21.27,14.38 -36.28,14.38 -14.19,0 -26.07,-4.8 -35.66,-14.38 -9.59,-9.59 -14.38,-21.49 -14.38,-35.66 V 802.129 c 0,-47.539 8.54,-89.449 25.64,-125.731 17.09,-36.269 42.11,-64.636 75.06,-85.066 32.94,-20.434 73.19,-30.652 120.73,-30.652 35.03,0 67.12,5.429 96.32,16.261 29.19,10.829 55.05,25.84 77.57,45.028 15.04,12.82 27.83,27.25 38.78,43.031 v -33.012 c 0,-47.547 -8.35,-87.347 -25.02,-119.476 -16.69,-32.09 -40.46,-56.481 -71.31,-73.172 -30.86,-16.668 -67.98,-25.02 -111.34,-25.02 -31.71,0 -60.26,5.211 -85.7,15.629 -25.45,10.442 -44.83,18.571 -58.16,24.403 -12.52,5.847 -24.4,5.847 -35.66,0 -11.26,-5.832 -19.82,-16.274 -25.65,-31.282 -4.18,-12.511 -3.12,-24.398 3.13,-35.648 6.26,-11.274 17.3,-20.641 33.15,-28.141 19.18,-10.84 43.79,-19.601 73.81,-26.281 30.03,-6.66 61.3,-10.012 93.83,-10.012 58.37,0 110.71,11.262 157,33.774 46.29,22.527 83.19,56.918 110.72,103.207 27.52,46.293 41.28,104.461 41.28,174.519 v 545.442 c 0,14.17 -4.8,26.07 -14.39,35.66 -9.59,9.58 -21.48,14.38 -35.65,14.38"
         style="fill:#ffffff;fill-opacity:1;fill-rule:nonzero;stroke:none"
         transform="matrix(0.13333333,0,0,-0.13333333,0,240)" />
      <path
         id="path6"
         d="m 9418.34,772.102 c -19.2,-36.704 -45.47,-65.672 -78.81,-86.942 -33.37,-21.269 -71.75,-31.91 -115.1,-31.91 -42.54,0 -80.69,10.84 -114.47,32.531 -33.77,21.68 -60.05,51.078 -78.81,88.199 -18.76,37.106 -28.14,78.598 -28.14,124.477 0,47.527 9.38,89.645 28.14,126.343 18.76,36.7 45.04,65.68 78.81,86.95 33.78,21.26 71.93,31.9 114.47,31.9 43.35,0 81.73,-10.44 115.1,-31.27 33.34,-20.86 59.61,-49.64 78.81,-86.32 19.18,-36.712 28.77,-79.244 28.77,-127.603 0,-47.539 -9.59,-89.656 -28.77,-126.355 z m 73.81,454.128 c -15.01,0 -27.11,-4.82 -36.28,-14.4 -9.19,-9.59 -13.76,-21.47 -13.76,-35.65 v -58.68 c -12.53,18.54 -28.84,36.45 -49.42,53.67 -22.95,19.19 -49.84,34.83 -80.69,46.92 -30.86,12.08 -64.23,18.14 -100.08,18.14 -57.55,0 -109.46,-14.39 -155.75,-43.16 -46.29,-28.78 -83,-68.61 -110.09,-119.46 -27.11,-50.9 -40.66,-109.286 -40.66,-175.153 0,-65.051 13.55,-123.027 40.66,-173.898 27.09,-50.879 64,-90.911 110.72,-120.098 46.69,-29.199 99.23,-43.781 157.62,-43.781 27.52,0 54.62,4.39 81.32,13.14 26.68,8.762 51.07,20.84 73.18,36.282 22.08,15.429 40.85,33.148 56.3,53.16 6.66,8.648 12.16,17.679 16.89,26.949 V 618.23 c 0,-60.878 -18.99,-109.878 -56.93,-146.992 -37.96,-37.097 -92.38,-55.668 -163.25,-55.668 -20.02,0 -40.25,2.301 -60.67,6.871 -20.45,4.59 -38.79,9.821 -55.05,15.637 -16.26,5.852 -28.16,10.012 -35.66,12.512 -18.34,7.512 -33.58,11.269 -45.66,11.269 -12.1,0 -21.88,-5.828 -29.39,-17.519 -6.69,-9.16 -8.57,-18.961 -5.64,-29.399 2.92,-10.421 10.64,-19.8 23.15,-28.14 6.67,-10.012 21.68,-19.813 45.04,-29.41 23.33,-9.582 50.03,-17.711 80.06,-24.391 30.02,-6.66 57.54,-10.012 82.57,-10.012 60.04,0 114.25,11.262 162.63,33.774 48.36,22.527 86.94,56.297 115.71,101.34 28.78,45.027 43.17,101.75 43.17,170.128 v 547.95 c 0,14.18 -4.81,26.06 -14.39,35.65 -9.6,9.58 -21.48,14.4 -35.65,14.4"
         style="fill:#ffffff;fill-opacity:1;fill-rule:nonzero;stroke:none"
         transform="matrix(0.13333333,0,0,-0.13333333,0,240)" />
      <path
         id="path7"
         d="m 10180.2,772.102 c -19.2,-36.704 -45.5,-65.672 -78.8,-86.942 -33.4,-21.269 -71.8,-31.91 -115.1,-31.91 -42.54,0 -80.7,10.84 -114.48,32.531 -33.77,21.68 -60.04,51.078 -78.81,88.199 -18.76,37.106 -28.14,78.598 -28.14,124.477 0,47.527 9.38,89.645 28.14,126.343 18.77,36.7 45.04,65.68 78.81,86.95 33.78,21.26 71.94,31.9 114.48,31.9 43.3,0 81.7,-10.44 115.1,-31.27 33.3,-20.86 59.6,-49.64 78.8,-86.32 19.2,-36.712 28.8,-79.244 28.8,-127.603 0,-47.539 -9.6,-89.656 -28.8,-126.355 z m 73.8,454.128 c -15,0 -27.1,-4.82 -36.3,-14.4 -9.2,-9.59 -13.7,-21.47 -13.7,-35.65 v -58.68 c -12.6,18.54 -28.9,36.45 -49.4,53.67 -23,19.19 -49.9,34.83 -80.7,46.92 -30.9,12.08 -64.3,18.14 -100.11,18.14 -57.55,0 -109.47,-14.39 -155.75,-43.16 -46.29,-28.78 -83,-68.61 -110.09,-119.46 -27.12,-50.9 -40.67,-109.286 -40.67,-175.153 0,-65.051 13.55,-123.027 40.67,-173.898 27.09,-50.879 63.99,-90.911 110.71,-120.098 46.7,-29.199 99.24,-43.781 157.63,-43.781 27.51,0 54.61,4.39 81.31,13.14 26.7,8.762 51.1,20.84 73.2,36.282 22.1,15.429 40.8,33.148 56.3,53.16 6.6,8.648 12.1,17.679 16.9,26.949 V 618.23 c 0,-60.878 -19,-109.878 -57,-146.992 -37.9,-37.097 -92.3,-55.668 -163.21,-55.668 -20.01,0 -40.25,2.301 -60.68,6.871 -20.44,4.59 -38.78,9.821 -55.04,15.637 -16.26,5.852 -28.15,10.012 -35.65,12.512 -18.35,7.512 -33.58,11.269 -45.66,11.269 -12.1,0 -21.89,-5.828 -29.4,-17.519 -6.69,-9.16 -8.56,-18.961 -5.63,-29.399 2.92,-10.421 10.63,-19.8 23.14,-28.14 6.67,-10.012 21.68,-19.813 45.04,-29.41 23.34,-9.582 50.04,-17.711 80.07,-24.391 30.02,-6.66 57.54,-10.012 82.56,-10.012 60.06,0 114.26,11.262 162.66,33.774 48.3,22.527 86.9,56.297 115.7,101.34 28.8,45.027 43.2,101.75 43.2,170.128 v 547.95 c 0,14.18 -4.9,26.06 -14.4,35.65 -9.6,9.58 -21.5,14.4 -35.7,14.4"
         style="fill:#ffffff;fill-opacity:1;fill-rule:nonzero;stroke:none"
         transform="matrix(0.13333333,0,0,-0.13333333,0,240)" />
      <path
         id="path8"
         d="m 10524.2,1498.94 c -14.2,0 -26,-4.8 -35.6,-14.39 -9.6,-9.59 -14.4,-21.48 -14.4,-35.66 V 624.488 c 0,-14.199 4.6,-26.277 13.7,-36.289 9.2,-10.008 20.9,-15.008 35.1,-15.008 14.1,0 26.2,5 36.3,15.008 10,10.012 15,22.09 15,36.289 v 824.402 c 0,14.18 -4.6,26.07 -13.8,35.66 -9.2,9.59 -21.3,14.39 -36.3,14.39"
         style="fill:#ffffff;fill-opacity:1;fill-rule:nonzero;stroke:none"
         transform="matrix(0.13333333,0,0,-0.13333333,0,240)" />
      <path
         id="path9"
         d="m 11215.4,772.102 c -19.6,-36.704 -46.3,-65.672 -80,-86.942 -33.8,-21.269 -72,-31.91 -114.5,-31.91 -42.6,0 -80.7,10.641 -114.5,31.91 -33.8,21.27 -60.7,50.238 -80.7,86.942 -20,36.699 -30,78.816 -30,126.355 0,48.359 10,90.891 30,127.603 20,36.68 46.9,65.46 80.7,86.32 33.8,20.83 71.9,31.27 114.5,31.27 42.5,0 80.7,-10.44 114.5,-31.27 33.7,-20.86 60.4,-49.64 80,-86.32 19.6,-36.712 29.4,-79.244 29.4,-127.603 0,-47.539 -9.8,-89.656 -29.4,-126.355 z m -30,420.338 c -48.8,29.18 -103.6,43.79 -164.5,43.79 -60.9,0 -116,-14.61 -165.1,-43.79 -49.3,-29.2 -88.2,-69.24 -117,-120.09 -28.8,-50.88 -43.2,-108.838 -43.2,-173.893 0,-65.051 14.4,-123.027 43.2,-173.898 28.8,-50.879 67.7,-90.911 117,-120.098 49.1,-29.199 104.2,-43.781 165.1,-43.781 60.9,0 115.7,14.582 164.5,43.781 48.8,29.187 87.6,69.219 116.3,120.098 28.8,50.871 43.2,108.847 43.2,173.898 0,65.055 -14.4,123.013 -43.2,173.893 -28.7,50.85 -67.5,90.89 -116.3,120.09"
         style="fill:#ffffff;fill-opacity:1;fill-rule:nonzero;stroke:none"
         transform="matrix(0.13333333,0,0,-0.13333333,0,240)" />
      <path
         id="path10"
         d="m 11957.9,1231.23 c -21.7,0.82 -37.1,-10.02 -46.3,-32.54 l -199.3,-468.131 -199.8,469.391 c -4.2,10.01 -10.8,17.71 -20,23.15 -9.2,5.41 -18.8,8.13 -28.8,8.13 -15.8,0 -28.1,-4.82 -36.9,-14.39 -8.7,-9.6 -13.1,-19.82 -13.1,-30.66 0,-5.83 0.6,-10.84 1.9,-15.01 1.2,-4.18 2.7,-7.93 4.4,-11.25 l 241.4,-554.201 c 4.2,-11.699 11,-20.239 20.6,-25.637 9.6,-5.441 19.8,-7.723 30.7,-6.891 20,0.821 34.6,11.668 43.8,32.528 l 241.4,555.441 c 1.7,3.33 3.2,7.3 4.4,11.9 1.3,4.57 1.9,9.38 1.9,14.38 0,12.51 -4.6,22.93 -13.8,31.27 -9.2,8.33 -20,12.52 -32.5,12.52"
         style="fill:#ffffff;fill-opacity:1;fill-rule:nonzero;stroke:none"
         transform="matrix(0.13333333,0,0,-0.13333333,0,240)" />
      <path
         id="path11"
         d="m 12490.8,883.445 c -20,14.168 -42.3,25.641 -66.9,34.399 -24.6,8.761 -50.3,16.457 -76.9,23.14 -29.2,8.332 -55.9,16.899 -80.1,25.653 -24.2,8.754 -43.4,20.211 -57.5,34.403 -14.2,14.17 -21.7,32.52 -22.6,55.04 0,24.19 6.5,43.16 19.4,56.92 12.9,13.77 29,23.56 48.2,29.4 19.2,5.82 38.8,8.76 58.8,8.76 31.7,0 60.7,-5.64 86.9,-16.89 26.3,-11.26 48.2,-27.32 65.7,-48.16 7.5,-7.5 16.9,-11.69 28.2,-12.5 11.2,-0.86 21.4,2.07 30.6,8.75 11.7,10.01 17.1,21.27 16.3,33.77 -0.9,12.51 -5,22.93 -12.5,31.28 -18.4,22.52 -39.7,40.23 -63.8,53.16 -24.2,12.93 -49,22.1 -74.5,27.53 -25.4,5.42 -49.8,8.13 -73.2,8.13 -40.8,0 -78.6,-7.5 -113.2,-22.52 -34.6,-15.02 -62.1,-36.28 -82.5,-63.8 -20.5,-27.52 -30.7,-60.05 -30.7,-97.59 0,-31.7 6.5,-58.593 19.4,-80.683 12.9,-22.102 30,-40.461 51.3,-55.039 21.3,-14.606 45.2,-26.703 71.9,-36.278 26.7,-9.605 53.8,-18.152 81.3,-25.652 26.7,-6.68 51.3,-14.387 73.9,-23.145 22.5,-8.75 40.8,-20.007 55,-33.785 14.2,-13.758 21.3,-32.316 21.3,-55.66 0,-24.207 -6.9,-43.578 -20.7,-58.156 -13.7,-14.613 -30.6,-24.844 -50.6,-30.672 -20.1,-5.84 -40.1,-9.18 -60.1,-10 -43.4,0 -80.1,8.129 -110.1,24.398 -30,16.274 -56.7,38.141 -80.1,65.672 -9.1,10 -19.3,15.418 -30.6,16.258 -11.3,0.832 -21.1,-1.668 -29.4,-7.5 -13.4,-9.18 -20.4,-19.816 -21.3,-31.898 -0.8,-12.102 2.5,-23.578 10,-34.41 32.6,-41.711 71.1,-71.309 115.8,-88.821 44.6,-17.519 89.8,-26.269 135.7,-26.269 40.9,0 79,7.32 114.5,21.902 35.4,14.578 64,35.84 85.7,63.797 21.6,27.93 32.5,61.082 32.5,99.461 0,33.34 -5.9,61.074 -17.5,83.183 -11.7,22.09 -27.6,40.235 -47.6,54.422"
         style="fill:#ffffff;fill-opacity:1;fill-rule:nonzero;stroke:none"
         transform="matrix(0.13333333,0,0,-0.13333333,0,240)" />
      <path
         id="path12"
         d="m 13330.1,1398.86 c 6.7,0 12.5,2.29 17.5,6.88 5,4.57 7.5,10.64 7.5,18.14 0,6.67 -2.5,12.51 -7.5,17.51 -5,5 -10.8,7.5 -17.5,7.5 h -471.6 c -6.7,0 -12.5,-2.5 -17.6,-7.5 -5,-5 -7.5,-10.84 -7.5,-17.51 V 598.211 c 0,-6.691 2.5,-12.512 7.5,-17.512 5.1,-5.008 10.9,-7.508 17.6,-7.508 h 471.6 c 6.7,0 12.5,2.289 17.5,6.891 5,4.566 7.5,10.617 7.5,18.129 0,6.66 -2.5,12.508 -7.5,17.508 -5,5.011 -10.8,7.511 -17.5,7.511 H 12886 v 376.555 h 387.8 c 6.7,0 12.5,2.285 17.5,6.885 5,4.56 7.5,10.63 7.5,18.13 0,6.67 -2.5,12.51 -7.5,17.52 -5,5 -10.8,7.5 -17.5,7.5 H 12886 v 349.04 h 444.1"
         style="fill:#ffffff;fill-opacity:1;fill-rule:nonzero;stroke:none"
         transform="matrix(0.13333333,0,0,-0.13333333,0,240)" />
      <path
         id="path13"
         d="m 14000,1181.81 c 1.2,2.91 1.9,5.63 1.9,8.13 0,5.82 -1.9,10.84 -5.7,15.01 -3.7,4.17 -9.8,6.25 -18.1,6.25 -7.5,0 -14.6,-3.74 -21.3,-11.25 l -204,-272.001 -207.5,272.001 c -5.1,7.51 -11.7,11.25 -20.1,11.25 -6.7,0 -12.7,-2.5 -18.1,-7.49 -5.4,-5.02 -8.1,-11.27 -8.1,-18.77 0,-5.85 1.6,-10.85 5,-15.01 l 217.6,-283.836 -215.1,-279.133 c -3.4,-4.18 -5,-9.18 -5,-15.012 0,-8.34 2.5,-14.367 7.5,-18.129 5,-3.75 10.4,-5.629 16.2,-5.629 8.4,0 15,3.34 20.1,10 l 206.2,268.926 205.3,-267.676 c 6.7,-7.511 13.8,-11.25 21.3,-11.25 6.7,0 12.3,2.5 16.9,7.5 4.6,5.008 6.9,10.829 6.9,17.52 0,5.828 -1.7,10.82 -5,15.008 l -214.3,280.676 213,284.775 c 1.7,2.51 3.1,5.21 4.4,8.14"
         style="fill:#ffffff;fill-opacity:1;fill-rule:nonzero;stroke:none"
         transform="matrix(0.13333333,0,0,-0.13333333,0,240)" />
      <path
         id="path14"
         d="m 14686.8,745.211 c -21.3,-41.281 -50.1,-73.621 -86.3,-96.961 -36.3,-23.359 -77.8,-35.031 -124.5,-35.031 -47.6,0 -89.5,11.672 -125.7,35.031 -36.3,23.34 -64.9,55.68 -85.7,96.961 -20.9,41.277 -31.3,88.195 -31.3,140.734 0,53.356 10.4,100.27 31.3,140.745 20.8,40.44 49.4,72.34 85.7,95.7 36.2,23.33 78.1,35.03 125.7,35.03 46.7,0 88.2,-11.7 124.5,-35.03 36.2,-23.36 65,-55.47 86.3,-96.33 21.2,-40.88 31.9,-87.568 31.9,-140.115 0,-52.539 -10.7,-99.457 -31.9,-140.734 z m -59.4,418.459 c -43.4,27.52 -93,41.28 -148.9,41.28 -27.5,0 -54.2,-3.34 -80.1,-10 -25.8,-6.68 -50,-17.1 -72.5,-31.28 -22.6,-14.19 -42.6,-32.53 -60.1,-55.04 -10.2,-13.12 -19.3,-27.84 -27.5,-43.79 v 115.09 c 0,6.67 -2.3,12.51 -6.9,17.52 -4.6,5 -10.6,7.5 -18.1,7.5 -7.5,0 -13.6,-2.5 -18.2,-7.5 -4.6,-5.01 -6.8,-10.85 -6.8,-17.52 V 348.012 c 0,-6.66 2.5,-12.512 7.5,-17.512 5,-5.012 10.8,-7.512 17.5,-7.512 7.5,0 13.5,2.5 18.1,7.512 4.6,5 6.9,10.852 6.9,17.512 v 361.66 c 9.4,-15.711 19.5,-30.442 30.6,-43.91 18,-21.692 37.8,-39.832 59.5,-54.41 21.6,-14.602 45.2,-25.872 70.6,-33.77 25.5,-7.922 52,-11.902 79.5,-11.902 55,0 104.4,13.968 148.2,41.922 43.8,27.929 78.4,66.078 103.9,114.457 25.4,48.371 38.1,103 38.1,163.886 0,61.707 -12.7,116.535 -38.1,164.505 -25.5,47.95 -59.9,85.69 -103.2,113.22"
         style="fill:#ffffff;fill-opacity:1;fill-rule:nonzero;stroke:none"
         transform="matrix(0.13333333,0,0,-0.13333333,0,240)" />
      <path
         id="path15"
         d="m 15057.7,1099.24 c 23.3,22.93 48.8,40.03 76.3,51.3 27.5,11.25 53.8,16.88 78.8,16.88 35.9,0 70.5,-7.72 103.9,-23.14 33.3,-15.44 61.9,-38.15 85.7,-68.17 23.7,-30.04 37.7,-67.15 41.9,-111.352 V 953.5 h -460.2 c 3.6,21.133 9.2,40.754 16.7,58.8 14.6,35.02 33.5,63.99 56.9,86.94 z m 412.8,-193.283 c 6.7,0 12.5,2.699 17.5,8.141 5.1,5.406 7.6,11.449 7.6,18.132 -1.7,49.208 -10.7,91.52 -26.9,126.98 -16.3,35.44 -37.6,65.05 -63.8,88.83 -26.3,23.76 -56.1,41.27 -89.5,52.53 -33.4,11.26 -67.5,16.89 -102.6,16.89 -48.3,0 -94,-13.13 -137,-39.4 -42.9,-26.28 -77.9,-64.02 -105,-113.22 -27.2,-49.22 -40.7,-108.84 -40.7,-178.895 0,-65.894 13.8,-123.234 41.3,-172.004 27.5,-48.793 65.2,-86.55 113.2,-113.23 47.9,-26.699 103.2,-40.031 165.8,-40.031 49.2,0 94,12.511 134.4,37.531 40.5,25.019 73.6,54.199 99.5,87.57 3.3,4.168 5,9.168 5,15.008 0,5.832 -2.1,11.051 -6.3,15.652 -4.1,4.571 -9.1,6.868 -15,6.868 -7.5,0 -14.6,-3.75 -21.2,-11.258 -12.5,-18.352 -28.8,-35.449 -48.8,-51.289 -20,-15.864 -42.6,-28.571 -67.6,-38.153 -25,-9.589 -51.7,-14.39 -80,-14.39 -59.3,0 -109.1,12.922 -149.5,38.781 -40.5,25.84 -70.9,60.051 -91.4,102.578 -20.4,42.543 -30.6,89.238 -30.6,140.129 0,5.496 0.1,10.902 0.3,16.25 h 491.3"
         style="fill:#ffffff;fill-opacity:1;fill-rule:nonzero;stroke:none"
         transform="matrix(0.13333333,0,0,-0.13333333,0,240)" />
      <path
         id="path16"
         d="m 16016,1212.46 c -13.4,3.33 -25.9,5 -37.6,5 -40.8,0 -76.9,-8.96 -108.2,-26.89 -31.2,-17.94 -57.7,-41.29 -79.4,-70.05 -19.2,-25.44 -34,-52.78 -45,-81.79 v 133.7 c 0,6.66 -2.4,12.51 -6.9,17.51 -4.6,5.01 -10.6,7.51 -18.2,7.51 -6.6,0 -12.5,-2.5 -17.5,-7.51 -5,-5 -7.5,-10.85 -7.5,-17.51 V 598.211 c 0,-6.691 2.3,-12.512 6.9,-17.512 4.6,-5.008 10.6,-7.508 18.1,-7.508 6.7,0 12.6,2.5 17.6,7.508 5,5 7.5,10.821 7.5,17.512 v 312.758 c 0,29.183 6.2,59.203 18.7,90.071 12.5,30.85 29.4,59.42 50.7,85.69 21.3,26.27 44.8,47.33 70.7,63.18 25.8,15.83 52.1,23.76 78.8,23.76 13.3,0 23.5,-1.87 30.6,-5.62 7.1,-3.76 13.2,-5.63 18.2,-5.63 6.6,0 12.1,2.5 16.2,7.51 4.2,5 6.3,11.25 6.3,18.76 0,12.52 -6.7,20.43 -20,23.77"
         style="fill:#ffffff;fill-opacity:1;fill-rule:nonzero;stroke:none"
         transform="matrix(0.13333333,0,0,-0.13333333,0,240)" />
      <path
         id="path17"
         d="m 16420,1202.45 h -137.6 v 158.88 c 0,6.67 -2.3,12.51 -6.8,17.52 -4.6,5 -10.7,7.5 -18.2,7.5 -6.7,0 -12.5,-2.5 -17.5,-7.5 -5,-5.01 -7.5,-10.85 -7.5,-17.52 v -158.88 h -102.6 c -5.8,0 -11.2,-2.31 -16.2,-6.88 -5,-4.6 -7.5,-10.22 -7.5,-16.89 0,-5.84 2.5,-11.26 7.5,-16.26 5,-5 10.4,-7.51 16.2,-7.51 h 102.6 V 707.051 c 0,-36.711 5,-64.422 15,-83.192 10,-18.757 22.3,-31.699 36.9,-38.777 14.6,-7.102 28.4,-10.852 41.3,-11.262 12.9,-0.429 21.9,-0.629 26.9,-0.629 14.2,0 26.1,2.7 35.7,8.129 9.5,5.418 14.3,11.891 14.3,19.391 0,5.82 -2.1,11.051 -6.2,15.641 -4.2,4.578 -9.2,6.878 -15,6.878 -5.9,0 -10.9,-0.839 -15,-2.5 -4.2,-1.679 -9.2,-2.5 -15.1,-2.5 -10,0 -20.4,1.879 -31.2,5.629 -10.9,3.762 -19.8,12.082 -26.9,25.02 -7.1,12.922 -10.7,33.152 -10.7,60.672 v 445.359 h 137.6 c 6.7,0 12.3,2.29 16.9,6.88 4.6,4.58 6.9,10.21 6.9,16.89 0,5.83 -2.3,11.26 -6.9,16.27 -4.6,5 -10.2,7.5 -16.9,7.5"
         style="fill:#ffffff;fill-opacity:1;fill-rule:nonzero;stroke:none"
         transform="matrix(0.13333333,0,0,-0.13333333,0,240)" />
      <path
         id="path18"
         d="m 16696.5,1099.24 c 23.4,22.93 48.8,40.03 76.4,51.3 27.5,11.25 53.7,16.88 78.8,16.88 35.8,0 70.4,-7.72 103.8,-23.14 33.3,-15.44 61.9,-38.15 85.7,-68.17 23.8,-30.04 37.7,-67.15 41.9,-111.352 V 953.5 h -460.2 c 3.7,21.133 9.2,40.754 16.7,58.8 14.6,35.02 33.6,63.99 56.9,86.94 z m 412.9,-193.283 c 6.6,0 12.5,2.699 17.5,8.141 5,5.406 7.5,11.449 7.5,18.132 -1.7,49.208 -10.7,91.52 -26.9,126.98 -16.3,35.44 -37.5,65.05 -63.8,88.83 -26.3,23.76 -56.1,41.27 -89.5,52.53 -33.3,11.26 -67.5,16.89 -102.5,16.89 -48.4,0 -94.1,-13.13 -137,-39.4 -43,-26.28 -78,-64.02 -105.1,-113.22 -27.1,-49.22 -40.7,-108.84 -40.7,-178.895 0,-65.894 13.8,-123.234 41.3,-172.004 27.5,-48.793 65.3,-86.55 113.2,-113.23 48,-26.699 103.2,-40.031 165.8,-40.031 49.2,0 94,12.511 134.5,37.531 40.4,25.019 73.6,54.199 99.4,87.57 3.4,4.168 5,9.168 5,15.008 0,5.832 -2.1,11.051 -6.2,15.652 -4.2,4.571 -9.2,6.868 -15,6.868 -7.5,0 -14.6,-3.75 -21.3,-11.258 -12.5,-18.352 -28.8,-35.449 -48.8,-51.289 -20,-15.864 -42.5,-28.571 -67.5,-38.153 -25.1,-9.589 -51.8,-14.39 -80.1,-14.39 -59.2,0 -109.1,12.922 -149.5,38.781 -40.5,25.84 -70.9,60.051 -91.3,102.578 -20.5,42.543 -30.7,89.238 -30.7,140.129 0,5.496 0.1,10.902 0.3,16.25 h 491.4"
         style="fill:#ffffff;fill-opacity:1;fill-rule:nonzero;stroke:none"
         transform="matrix(0.13333333,0,0,-0.13333333,0,240)" />
      <path
         id="path19"
         d="m 17819.3,1101.13 c -15.4,35.84 -39.6,64.21 -72.5,85.05 -33,20.85 -75.7,31.28 -128.3,31.28 -30.8,0 -61.9,-6.06 -93.2,-18.14 -31.2,-12.09 -59.8,-28.77 -85.7,-50.04 -22,-18.15 -40.2,-38.72 -55,-61.44 v 84.59 c 0,6.66 -2.3,12.51 -6.9,17.51 -4.6,5.01 -10.6,7.51 -18.1,7.51 -6.7,0 -12.6,-2.5 -17.6,-7.51 -5,-5 -7.5,-10.85 -7.5,-17.51 V 598.211 c 0,-6.691 2.3,-12.512 6.9,-17.512 4.6,-5.008 10.7,-7.508 18.2,-7.508 6.6,0 12.5,2.5 17.5,7.508 5,5 7.5,10.821 7.5,17.512 V 976.02 c 0,35.84 11.4,68.37 34.4,97.59 22.9,29.17 51.9,52.53 86.9,70.04 35.1,17.51 70.9,26.28 107.6,26.28 42.6,0 77,-8.77 103.2,-26.28 26.3,-17.51 45.5,-40.87 57.6,-70.04 12.1,-29.22 18.1,-61.75 18.1,-97.59 V 598.211 c 0,-6.691 2.3,-12.512 6.9,-17.512 4.6,-5.008 10.6,-7.508 18.1,-7.508 6.7,0 12.5,2.5 17.5,7.508 5,5 7.6,10.821 7.6,17.512 V 981.02 c 0,44.19 -7.8,84.23 -23.2,120.11"
         style="fill:#ffffff;fill-opacity:1;fill-rule:nonzero;stroke:none"
         transform="matrix(0.13333333,0,0,-0.13333333,0,240)" />
    </g>
  </g>
</svg>
